<svg width="15" height="13" viewBox="0 0 15 13" fill="none" xmlns="http://www.w3.org/2000/svg">
<path fill-rule="evenodd" clip-rule="evenodd" d="M3.26087 2.1C3.26087 2.7072 2.75443 3.2 2.13043 3.2C1.50587 3.2 1 2.7072 1 2.1C1 1.4928 1.50587 1 2.13043 1C2.75443 1 3.26087 1.4928 3.26087 2.1Z" stroke="#4A4A4A" stroke-width="0.7" stroke-linecap="round" stroke-linejoin="round"/>
<path d="M5.56104 2.0603H14.0003" stroke="#4A4A4A" stroke-width="0.7" stroke-linecap="round" stroke-linejoin="round"/>
<path fill-rule="evenodd" clip-rule="evenodd" d="M3.26087 6.4999C3.26087 7.1071 2.75443 7.5999 2.13043 7.5999C1.50587 7.5999 1 7.1071 1 6.4999C1 5.8927 1.50587 5.3999 2.13043 5.3999C2.75443 5.3999 3.26087 5.8927 3.26087 6.4999Z" stroke="#4A4A4A" stroke-width="0.7" stroke-linecap="round" stroke-linejoin="round"/>
<path d="M5.56104 6.46021H14.0003" stroke="#4A4A4A" stroke-width="0.7" stroke-linecap="round" stroke-linejoin="round"/>
<path fill-rule="evenodd" clip-rule="evenodd" d="M3.26087 10.9C3.26087 11.5072 2.75443 12 2.13043 12C1.50587 12 1 11.5072 1 10.9C1 10.2928 1.50587 9.80005 2.13043 9.80005C2.75443 9.80005 3.26087 10.2928 3.26087 10.9Z" stroke="#4A4A4A" stroke-width="0.7" stroke-linecap="round" stroke-linejoin="round"/>
<path d="M5.56104 10.8596H14.0003" stroke="#4A4A4A" stroke-width="0.7" stroke-linecap="round" stroke-linejoin="round"/>
</svg>
