<svg width="20" height="20" viewBox="0 0 20 20" fill="none" xmlns="http://www.w3.org/2000/svg">
<path d="M16.2501 7.00003V2.91669C16.2501 2.80619 16.2062 2.70021 16.1281 2.62207C16.0499 2.54393 15.944 2.50003 15.8335 2.50003H14.1668C14.0563 2.50003 13.9503 2.54393 13.8722 2.62207C13.794 2.70021 13.7501 2.80619 13.7501 2.91669V4.70003L10.2818 1.50919C10.2048 1.43821 10.104 1.3988 9.99929 1.3988C9.8946 1.3988 9.79374 1.43821 9.71679 1.50919L0.550121 10.11C0.488297 10.1669 0.445105 10.2411 0.426208 10.323C0.407311 10.4048 0.413593 10.4905 0.444229 10.5687C0.474865 10.6469 0.528425 10.714 0.597884 10.7612C0.667342 10.8085 0.749456 10.8336 0.833454 10.8334H2.91679V18.75C2.91679 18.971 3.00458 19.183 3.16086 19.3393C3.31715 19.4956 3.52911 19.5834 3.75012 19.5834H16.2501C16.4711 19.5834 16.6831 19.4956 16.8394 19.3393C16.9957 19.183 17.0835 18.971 17.0835 18.75V10.8334H19.1668C19.2507 10.8334 19.3327 10.8082 19.402 10.7609C19.4714 10.7136 19.5248 10.6465 19.5553 10.5683C19.5859 10.4901 19.5921 10.4045 19.5732 10.3228C19.5542 10.241 19.5111 10.1668 19.4493 10.11L16.2501 7.00003Z" stroke="#4A4A4A" stroke-width="0.833333" stroke-linecap="round" stroke-linejoin="round"/>
</svg>
