<?xml version="1.0" standalone="no"?>
<!DOCTYPE svg PUBLIC "-//W3C//DTD SVG 20010904//EN"
 "http://www.w3.org/TR/2001/REC-SVG-20010904/DTD/svg10.dtd">
<svg version="1.0" xmlns="http://www.w3.org/2000/svg"
 width="311.000000pt" height="350.000000pt" viewBox="0 0 311.000000 350.000000"
 preserveAspectRatio="xMidYMid meet">
<metadata>
Created by potrace 1.16, written by Peter Selinger 2001-2019
</metadata>
<g transform="translate(0.000000,350.000000) scale(0.100000,-0.100000)"
fill="#000000" stroke="none">
<path d="M1155 3367 c-16 -12 -34 -28 -38 -34 -4 -7 -15 -13 -23 -13 -17 0
-61 -19 -201 -86 -50 -24 -96 -44 -102 -44 -6 0 -11 -4 -11 -10 0 -5 -7 -10
-15 -10 -8 0 -32 -9 -52 -20 -21 -11 -43 -20 -50 -20 -7 0 -13 -4 -13 -10 0
-5 -6 -10 -12 -10 -25 -1 -149 -67 -182 -98 -33 -30 -69 -97 -134 -252 -6 -14
-30 -70 -53 -125 -49 -118 -108 -238 -155 -316 -19 -31 -34 -61 -34 -67 0 -17
94 -102 153 -137 100 -61 251 -103 430 -122 32 -3 60 -9 62 -14 3 -4 13 -90
23 -191 18 -197 21 -475 8 -768 -20 -433 -25 -517 -31 -540 -20 -75 -32 -166
-23 -177 14 -18 124 -67 193 -87 33 -10 75 -22 93 -28 24 -7 37 -7 45 1 8 8 4
11 -14 11 -33 0 -200 55 -263 87 -45 23 -48 26 -42 56 28 138 38 231 46 427 5
124 14 332 21 464 8 179 8 272 0 370 -17 190 -29 305 -38 356 l-8 45 -85 6
c-83 6 -225 32 -265 48 -126 52 -285 160 -285 196 0 7 9 23 20 37 30 39 124
231 165 338 9 25 23 57 31 72 8 14 14 31 14 37 0 10 54 132 88 199 26 51 72
92 132 119 30 13 105 48 165 78 227 110 354 165 379 165 8 0 16 3 18 8 2 4 22
22 46 41 42 33 43 33 76 17 19 -9 38 -16 44 -16 5 0 23 -7 38 -15 16 -8 40
-15 54 -14 15 0 0 9 -40 22 -36 12 -68 25 -71 30 -3 4 -21 10 -40 12 -25 4
-42 -1 -64 -18z"/>
<path d="M2090 3273 c0 -5 30 -20 68 -33 37 -12 71 -27 77 -31 5 -5 16 -9 25
-9 8 0 27 -6 42 -14 15 -8 40 -17 57 -21 17 -4 31 -11 31 -15 0 -5 16 -12 35
-16 19 -3 35 -10 35 -14 0 -5 14 -11 30 -15 17 -4 30 -11 30 -16 0 -5 6 -9 14
-9 25 0 110 -75 131 -116 11 -21 27 -50 36 -64 16 -24 75 -132 117 -215 12
-22 31 -62 43 -90 12 -27 24 -44 26 -37 5 14 -74 179 -142 297 -22 39 -49 87
-60 109 -11 21 -32 51 -47 66 -30 30 -177 110 -202 110 -9 0 -16 4 -16 9 0 5
-13 12 -30 16 -16 4 -32 11 -35 16 -4 5 -14 9 -23 9 -9 1 -35 9 -57 20 -22 11
-47 19 -55 20 -9 0 -20 4 -25 9 -6 4 -23 13 -40 19 -16 5 -38 13 -47 17 -10 4
-18 3 -18 -2z"/>
<path d="M2435 1051 c-5 -272 -4 -410 4 -433 5 -18 22 -85 36 -148 l27 -114
-29 -24 c-74 -61 -280 -131 -498 -170 -100 -17 -614 -23 -692 -8 -27 6 -43 5
-43 -1 0 -14 230 -33 400 -33 159 0 322 18 451 50 46 12 104 26 129 32 25 5
49 14 54 19 6 5 16 9 24 9 29 0 197 89 214 114 8 12 0 75 -12 91 -4 6 -11 33
-15 60 -4 28 -12 56 -18 64 -9 10 -12 134 -12 447 0 238 -3 435 -6 438 -3 4
-10 -173 -14 -393z"/>
</g>
</svg>
