<?xml version="1.0" standalone="no"?>
<!DOCTYPE svg PUBLIC "-//W3C//DTD SVG 20010904//EN"
 "http://www.w3.org/TR/2001/REC-SVG-20010904/DTD/svg10.dtd">
<svg version="1.0" xmlns="http://www.w3.org/2000/svg"
 width="311.000000pt" height="350.000000pt" viewBox="0 0 311.000000 350.000000"
 preserveAspectRatio="xMidYMid meet">

<g transform="translate(0.000000,350.000000) scale(0.100000,-0.100000)"
fill="#000000" stroke="none">
<path d="M1472 3394 c10 -9 248 -13 253 -3 4 5 -48 9 -126 9 -73 0 -130 -2
-127 -6z"/>
<path d="M1388 3385 c-2 -3 -40 -10 -84 -16 -77 -10 -124 -29 -73 -29 14 0 29
4 35 9 5 6 51 13 102 17 56 4 88 10 80 15 -14 9 -52 12 -60 4z"/>
<path d="M1760 3380 c-11 -7 -4 -10 25 -10 29 0 36 3 25 10 -8 5 -19 10 -25
10 -5 0 -17 -5 -25 -10z"/>
<path d="M1135 3295 c-22 -24 -52 -47 -67 -50 -16 -4 -28 -11 -28 -16 0 -5 -8
-9 -17 -10 -11 0 -13 -3 -6 -6 21 -8 98 37 143 83 23 24 36 44 29 44 -8 0 -32
-20 -54 -45z"/>
<path d="M1980 3261 c0 -5 15 -13 33 -16 17 -4 34 -11 37 -15 3 -5 19 -12 35
-15 29 -7 29 -7 9 8 -11 9 -33 19 -47 22 -15 4 -30 11 -33 16 -7 12 -34 12
-34 0z"/>
<path d="M970 3201 c0 -5 -14 -12 -31 -16 -17 -4 -42 -13 -57 -21 -15 -8 -33
-14 -39 -14 -7 0 -13 -4 -13 -10 0 -5 2 -10 4 -10 5 0 73 28 113 46 17 8 36
14 42 14 6 0 11 5 11 10 0 6 -7 10 -15 10 -8 0 -15 -4 -15 -9z"/>
<path d="M2120 3201 c0 -5 13 -12 30 -16 16 -4 32 -11 35 -16 8 -12 25 -12 25
0 0 5 -13 12 -30 16 -16 4 -30 11 -30 16 0 5 -7 9 -15 9 -8 0 -15 -4 -15 -9z"/>
<path d="M2260 3138 c25 -11 59 -27 75 -34 186 -79 338 -156 343 -176 2 -10 8
-18 12 -18 5 0 11 -13 15 -30 4 -16 11 -30 16 -30 5 0 9 -5 9 -11 0 -13 41
-101 51 -109 4 -3 10 -16 14 -30 4 -14 47 -106 95 -205 49 -99 91 -192 95
-207 4 -16 11 -28 16 -28 5 0 9 -8 9 -17 0 -10 7 -31 15 -47 21 -40 19 -49
-17 -82 -75 -67 -188 -129 -257 -140 -47 -7 -65 -24 -27 -24 14 0 28 5 31 10
3 6 17 10 29 10 40 0 163 69 220 123 56 52 56 52 44 90 -6 20 -15 37 -20 37
-4 0 -8 8 -8 18 -1 9 -9 35 -20 57 -11 22 -19 46 -20 53 0 6 -4 12 -10 12 -5
0 -10 5 -10 12 0 6 -16 44 -35 85 -19 41 -35 78 -35 83 0 6 -4 10 -10 10 -5 0
-10 6 -10 13 0 7 -31 76 -70 152 -38 77 -70 146 -70 153 0 6 -4 12 -9 12 -5 0
-12 12 -16 27 -9 37 -47 70 -114 99 -31 14 -63 29 -72 34 -9 4 -61 27 -115 50
-54 23 -113 48 -131 56 -17 8 -37 14 -45 14 -7 0 7 -10 32 -22z"/>
<path d="M788 3127 c-16 -6 -28 -15 -28 -20 0 -5 6 -6 13 -3 6 3 20 9 30 12 9
4 17 10 17 15 0 5 -1 9 -2 8 -2 -1 -15 -6 -30 -12z"/>
<path d="M725 3100 c-3 -5 -13 -10 -22 -10 -9 0 -62 -23 -119 -50 -98 -48
-145 -85 -202 -160 -28 -38 -92 -178 -92 -204 0 -9 -4 -16 -10 -16 -5 0 -10
-5 -10 -11 0 -12 -25 -69 -90 -204 -63 -132 -80 -171 -80 -184 0 -6 -4 -11 -8
-11 -4 0 -13 -14 -20 -32 -11 -29 -10 -34 15 -60 15 -15 33 -28 40 -28 7 0 13
-5 13 -10 0 -6 11 -15 25 -20 13 -5 41 -20 62 -33 119 -73 330 -134 421 -121
23 4 42 11 42 16 0 6 -16 7 -40 3 -39 -7 -186 11 -205 25 -5 4 -25 11 -43 15
-18 4 -45 13 -60 21 -15 8 -33 14 -39 14 -7 0 -13 4 -13 9 0 5 -12 12 -27 16
-15 3 -30 10 -33 14 -3 4 -27 20 -55 35 -57 33 -95 65 -95 80 0 6 13 38 29 71
102 210 161 339 161 354 0 6 4 11 9 11 5 0 12 13 16 30 4 16 11 32 16 35 5 4
9 14 9 23 1 9 9 35 20 57 11 22 19 44 20 48 1 22 140 163 169 172 13 4 46 20
73 36 27 16 55 29 63 29 8 0 15 5 15 10 0 6 3 9 8 8 14 -3 62 14 62 23 0 12
-17 11 -25 -1z"/>
<path d="M2445 1959 c-4 -6 -2 -16 4 -22 6 -6 11 -7 11 -1 0 5 48 9 118 8
l117 -2 -110 7 c-60 3 -115 9 -122 14 -6 4 -15 2 -18 -4z"/>
<path d="M692 1910 c0 -19 2 -27 5 -17 2 9 2 25 0 35 -3 9 -5 1 -5 -18z"/>
<path d="M2431 1443 c0 -274 4 -449 9 -436 12 29 11 893 -1 893 -5 0 -9 -196
-8 -457z"/>
<path d="M700 1806 c0 -30 5 -58 10 -61 6 -4 10 15 10 49 0 30 -4 58 -10 61
-6 4 -10 -15 -10 -49z"/>
<path d="M724 1605 c0 -66 1 -92 3 -57 2 34 2 88 0 120 -2 31 -3 3 -3 -63z"/>
<path d="M731 1268 c0 -120 3 -188 9 -188 12 0 12 236 0 320 -5 39 -8 0 -9
-132z"/>
<path d="M748 893 c-3 -49 -2 -135 2 -193 6 -96 7 -88 8 88 1 105 0 192 -2
192 -1 0 -5 -39 -8 -87z"/>
<path d="M2454 825 c0 -49 1 -71 3 -48 2 23 2 64 0 90 -2 26 -3 8 -3 -42z"/>
<path d="M2461 607 c-1 -70 3 -106 9 -102 12 7 12 100 1 165 -7 36 -9 24 -10
-63z"/>
<path d="M761 418 c-1 -104 2 -138 12 -138 6 -1 30 -9 52 -20 22 -11 48 -19
57 -20 9 0 20 -5 23 -10 8 -12 35 -13 35 -1 0 5 -17 13 -37 19 -39 10 -104 34
-113 40 -3 2 -10 63 -16 135 l-11 132 -2 -137z"/>
<path d="M2482 379 c-2 -108 -10 -120 -86 -134 -20 -4 -38 -11 -41 -15 -3 -5
-30 -12 -60 -15 -30 -4 -55 -11 -55 -16 0 -4 -12 -10 -27 -12 -16 -2 -6 -2 22
0 27 2 54 8 60 13 5 4 29 11 52 15 24 4 45 10 48 15 3 5 23 11 46 15 22 4 43
12 45 19 3 7 3 57 1 112 l-3 99 -2 -96z"/>
<path d="M965 214 c11 -4 25 -10 30 -15 6 -4 31 -11 55 -15 25 -4 50 -10 55
-15 6 -4 44 -13 85 -19 129 -21 160 -23 160 -11 0 6 -17 11 -38 11 -22 0 -81
9 -133 20 -52 11 -104 20 -116 20 -12 0 -23 4 -25 10 -1 5 -23 11 -48 14 -25
3 -36 3 -25 0z"/>
<path d="M2120 170 c0 -5 9 -10 19 -10 11 0 23 5 26 10 4 6 -5 10 -19 10 -14
0 -26 -4 -26 -10z"/>
<path d="M1915 144 c-69 -8 -209 -13 -328 -12 -114 0 -211 -2 -214 -6 -11 -11
518 -6 587 5 36 6 85 14 110 19 l45 7 -40 1 c-22 0 -94 -6 -160 -14z"/>
</g>
</svg>
