<svg width="11" height="11" viewBox="0 0 11 11" fill="none" xmlns="http://www.w3.org/2000/svg">
<path d="M4.33398 8.48754L4.33398 9.51713C4.33405 9.55614 4.34508 9.59436 4.3658 9.62741C4.38652 9.66047 4.41611 9.68705 4.45119 9.70411C4.48628 9.72118 4.52545 9.72805 4.56425 9.72394C4.60305 9.71983 4.63992 9.70491 4.67065 9.68088L9.95898 5.52629C9.98377 5.5068 10.0038 5.48193 10.0176 5.45357C10.0314 5.4252 10.0385 5.39408 10.0385 5.36254C10.0385 5.33101 10.0314 5.29989 10.0176 5.27152C10.0038 5.24316 9.98377 5.21829 9.95898 5.19879L4.67107 1.04421C4.64033 1.02018 4.60347 1.00526 4.56467 1.00115C4.52587 0.997041 4.4867 1.00391 4.45161 1.02098C4.41652 1.03804 4.38694 1.06462 4.36621 1.09767C4.34549 1.13073 4.33447 1.16894 4.3344 1.20796L4.3344 2.23754" stroke="#4A4A4A" stroke-width="0.833333" stroke-linecap="round" stroke-linejoin="round"/>
<path d="M1.00083 9.51713C1.0009 9.55614 1.01192 9.59436 1.03265 9.62741C1.05337 9.66047 1.08296 9.68705 1.11804 9.70411C1.15313 9.72118 1.1923 9.72805 1.2311 9.72394C1.2699 9.71983 1.30677 9.70491 1.3375 9.68088L6.62583 5.52629C6.65062 5.5068 6.67066 5.48193 6.68443 5.45357C6.69821 5.4252 6.70537 5.39408 6.70537 5.36254C6.70537 5.33101 6.69821 5.29989 6.68443 5.27152C6.67066 5.24316 6.65062 5.21829 6.62583 5.19879L1.33667 1.04421C1.30593 1.02018 1.26907 1.00526 1.23027 1.00115C1.19147 0.997041 1.15229 1.00391 1.11721 1.02098C1.08212 1.03804 1.05253 1.06462 1.03181 1.09767C1.01109 1.13073 1.00007 1.16894 1 1.20796L1.00083 9.51713Z" stroke="#4A4A4A" stroke-width="0.833333" stroke-linecap="round" stroke-linejoin="round"/>
</svg>
