<svg width="30" height="30" viewBox="0 0 30 30" fill="none" xmlns="http://www.w3.org/2000/svg">
<path d="M16.875 3.125C16.875 3.78804 16.6116 4.42393 16.1428 4.89277C15.6739 5.36161 15.038 5.625 14.375 5.625C13.712 5.625 13.0761 5.36161 12.6072 4.89277C12.1384 4.42393 11.875 3.78804 11.875 3.125V0.625H16.875V3.125Z" stroke="black" stroke-width="0.833333" stroke-linecap="round" stroke-linejoin="round"/>
<path d="M16.875 3.125H29.375" stroke="black" stroke-width="0.833333" stroke-linecap="round" stroke-linejoin="round"/>
<path d="M0.625 3.125H11.875" stroke="black" stroke-width="0.833333" stroke-linecap="round" stroke-linejoin="round"/>
<path d="M18.125 25.625V18.125L20 19.375L21.25 16.875L16.875 13.125C16.2319 13.8457 15.3374 14.2929 14.375 14.375V14.375C13.4125 14.2934 12.5178 13.8461 11.875 13.125V13.125L7.5 16.875L8.75 19.375L10.625 18.125V25.625H18.125Z" stroke="black" stroke-width="0.833333" stroke-linecap="round" stroke-linejoin="round"/>
<path d="M14.375 18.125V14.375" stroke="black" stroke-width="0.833333" stroke-linecap="round" stroke-linejoin="round"/>
<path d="M24.2624 17.875C24.5686 19.8938 24.2496 21.9581 23.348 23.7902C22.4464 25.6224 21.0056 27.1346 19.2192 28.1236C17.4327 29.1127 15.3864 29.5312 13.3551 29.3228C11.3238 29.1144 9.40496 28.2892 7.85653 26.9581C6.3081 25.6269 5.20429 23.8537 4.69346 21.8767C4.18263 19.8997 4.28928 17.8136 4.99906 15.899C5.70884 13.9844 6.98773 12.3329 8.66383 11.1667C10.3399 10.0004 12.3329 9.37513 14.3748 9.375V5.625" stroke="black" stroke-width="0.833333" stroke-linecap="round" stroke-linejoin="round"/>
<path d="M21.665 12.53C22.3555 13.2631 22.932 14.0957 23.375 15" stroke="black" stroke-width="0.833333" stroke-linecap="round" stroke-linejoin="round"/>
<path d="M17.9399 10.0287C18.4094 10.2087 18.8649 10.4235 19.3024 10.6712" stroke="black" stroke-width="0.833333" stroke-linecap="round" stroke-linejoin="round"/>
</svg>
