<svg width="17" height="16" viewBox="0 0 17 16" fill="none" xmlns="http://www.w3.org/2000/svg">
<path d="M6.45152 14.083L1.20166 15.583L2.70162 10.3331L11.6751 1.35964C11.9214 1.11342 12.2137 0.918102 12.5354 0.784848C12.8571 0.651593 13.2019 0.583008 13.5501 0.583008C13.8983 0.583008 14.2431 0.651593 14.5648 0.784848C14.8865 0.918102 15.1788 1.11342 15.425 1.35964C15.6713 1.60586 15.8666 1.89817 15.9998 2.21987C16.1331 2.54158 16.2017 2.88638 16.2017 3.23459C16.2017 3.5828 16.1331 3.9276 15.9998 4.2493C15.8666 4.57101 15.6713 4.86332 15.425 5.10954L6.45152 14.083Z" stroke="black" stroke-width="0.833333" stroke-linecap="round" stroke-linejoin="round"/>
<path d="M10.55 2.48218L14.2999 6.23208" stroke="black" stroke-width="0.833333" stroke-linejoin="round"/>
<path d="M2.70166 10.3306L6.45156 14.0805" stroke="black" stroke-width="0.833333" stroke-linecap="round" stroke-linejoin="round"/>
</svg>
