<svg width="23" height="22" viewBox="0 0 23 22" fill="none" xmlns="http://www.w3.org/2000/svg">
<path d="M16.2501 7.00003V2.91669C16.2501 2.80619 16.2062 2.70021 16.1281 2.62207C16.0499 2.54393 15.944 2.50003 15.8335 2.50003H14.1668C14.0563 2.50003 13.9503 2.54393 13.8722 2.62207C13.794 2.70021 13.7501 2.80619 13.7501 2.91669V4.70003L10.2818 1.50919C10.2048 1.43821 10.104 1.3988 9.99929 1.3988C9.8946 1.3988 9.79374 1.43821 9.71679 1.50919L0.550121 10.11C0.488297 10.1669 0.445105 10.2411 0.426208 10.323C0.407311 10.4048 0.413593 10.4905 0.444229 10.5687C0.474865 10.6469 0.528425 10.714 0.597884 10.7612C0.667342 10.8085 0.749456 10.8336 0.833454 10.8334H2.91679V18.75C2.91679 18.971 3.00458 19.183 3.16086 19.3393C3.31715 19.4956 3.52911 19.5834 3.75012 19.5834H16.2501C16.4711 19.5834 16.6831 19.4956 16.8394 19.3393C16.9957 19.183 17.0835 18.971 17.0835 18.75V10.8334H19.1668C19.2507 10.8334 19.3327 10.8082 19.402 10.7609C19.4714 10.7136 19.5248 10.6465 19.5553 10.5683C19.5859 10.4901 19.5921 10.4045 19.5732 10.3228C19.5542 10.241 19.5111 10.1668 19.4493 10.11L16.2501 7.00003Z" stroke="#03A9F4" stroke-width="0.833333" stroke-linecap="round" stroke-linejoin="round"/>
<path d="M19.2501 8.7608V4.4693C19.2501 4.35316 19.2062 4.24177 19.1281 4.15965C19.0499 4.07753 18.944 4.03139 18.8335 4.03139H17.1668C17.0563 4.03139 16.9503 4.07753 16.8722 4.15965C16.794 4.24177 16.7501 4.35316 16.7501 4.4693V6.34354L13.2818 2.99004C13.2048 2.91544 13.104 2.87402 12.9993 2.87402C12.8946 2.87402 12.7937 2.91544 12.7168 2.99004L3.55012 12.0293C3.4883 12.0891 3.4451 12.1671 3.42621 12.2531C3.40731 12.3392 3.41359 12.4292 3.44423 12.5114C3.47487 12.5936 3.52843 12.6641 3.59788 12.7138C3.66734 12.7634 3.74946 12.7898 3.83345 12.7896H5.91679V21.1098C5.91679 21.3421 6.00458 21.5649 6.16086 21.7291C6.31714 21.8934 6.52911 21.9856 6.75012 21.9856H19.2501C19.4711 21.9856 19.6831 21.8934 19.8394 21.7291C19.9957 21.5649 20.0835 21.3421 20.0835 21.1098V12.7896H22.1668C22.2507 12.7896 22.3327 12.7631 22.402 12.7134C22.4714 12.6637 22.5248 12.5931 22.5553 12.511C22.5859 12.4288 22.5921 12.3389 22.5732 12.2529C22.5542 12.167 22.5111 12.0891 22.4493 12.0293L19.2501 8.7608Z" fill="#5CD0D2" fill-opacity="0.3"/>
</svg>
