<svg width="12" height="11" viewBox="0 0 12 11" fill="none" xmlns="http://www.w3.org/2000/svg">
<path d="M4.70166 9.58327L1.20166 10.5833L2.20166 7.08327L8.18416 1.10078C8.34831 0.936623 8.54319 0.80641 8.75766 0.717571C8.97214 0.628733 9.20201 0.583008 9.43416 0.583008C9.66631 0.583008 9.89618 0.628733 10.1107 0.717571C10.3251 0.80641 10.52 0.936623 10.6842 1.10078C10.8483 1.26493 10.9785 1.4598 11.0674 1.67428C11.1562 1.88876 11.2019 2.11863 11.2019 2.35078C11.2019 2.58292 11.1562 2.81279 11.0674 3.02727C10.9785 3.24175 10.8483 3.43662 10.6842 3.60078L4.70166 9.58327Z" stroke="black" stroke-width="0.833333" stroke-linecap="round" stroke-linejoin="round"/>
<path d="M7.43408 1.84912L9.93408 4.34912" stroke="black" stroke-width="0.833333" stroke-linejoin="round"/>
<path d="M2.20166 7.08154L4.70166 9.58154" stroke="black" stroke-width="0.833333" stroke-linecap="round" stroke-linejoin="round"/>
</svg>
