<svg width="24" height="24" viewBox="0 0 24 24" fill="none" xmlns="http://www.w3.org/2000/svg">
<g clip-path="url(#clip0)">
<path d="M20.6016 10.0108C20.5077 10.2082 20.4562 10.4231 20.4506 10.6416C20.445 10.8602 20.4853 11.0774 20.569 11.2794C20.6526 11.4813 20.7778 11.6635 20.9363 11.814C21.0948 11.9646 21.2831 12.0802 21.4891 12.1533L22.5432 12.5283C22.8474 12.6363 23.1107 12.8358 23.2969 13.0995C23.4831 13.3632 23.5831 13.678 23.5831 14.0008C23.5831 14.3236 23.4831 14.6385 23.2969 14.9022C23.1107 15.1658 22.8474 15.3654 22.5432 15.4733L21.4891 15.8483C21.2831 15.9215 21.0948 16.0371 20.9363 16.1876C20.7778 16.3382 20.6526 16.5203 20.569 16.7223C20.4853 16.9242 20.445 17.1415 20.4506 17.36C20.4562 17.5785 20.5077 17.7934 20.6016 17.9908L21.0832 19C21.2225 19.2916 21.2679 19.6191 21.2133 19.9376C21.1586 20.2561 21.0066 20.5498 20.7781 20.7782C20.5497 21.0067 20.256 21.1587 19.9375 21.2134C19.619 21.268 19.2915 21.2226 18.9999 21.0833L17.9891 20.6033C17.7917 20.5094 17.5768 20.458 17.3582 20.4524C17.1397 20.4468 16.9225 20.4871 16.7205 20.5708C16.5186 20.6544 16.3364 20.7795 16.1859 20.938C16.0353 21.0965 15.9197 21.2848 15.8466 21.4908L15.4716 22.545C15.3634 22.8489 15.1639 23.1119 14.9003 23.2979C14.6367 23.4838 14.3221 23.5837 13.9995 23.5837C13.6769 23.5837 13.3622 23.4838 13.0987 23.2979C12.8351 23.1119 12.6355 22.8489 12.5274 22.545L12.1524 21.4908C12.0791 21.2848 11.9635 21.0965 11.8128 20.938C11.6622 20.7795 11.48 20.6544 11.278 20.5707C11.076 20.4871 10.8586 20.4467 10.6401 20.4524C10.4215 20.458 10.2065 20.5094 10.0091 20.6033L8.9999 21.0833C8.70833 21.2231 8.38056 21.269 8.06183 21.2145C7.7431 21.1601 7.44912 21.0081 7.22048 20.7794C6.99184 20.5508 6.83981 20.2568 6.78537 19.9381C6.73093 19.6193 6.77678 19.2916 6.91657 19L7.39657 17.9892C7.49048 17.7918 7.5419 17.5769 7.54751 17.3583C7.55312 17.1398 7.5128 16.9226 7.42914 16.7206C7.34549 16.5186 7.22037 16.3365 7.06187 16.186C6.90338 16.0354 6.71505 15.9198 6.50907 15.8467L5.4549 15.4717C5.1507 15.3637 4.88741 15.1642 4.70121 14.9005C4.51501 14.6368 4.41504 14.3219 4.41504 13.9992C4.41504 13.6764 4.51501 13.3615 4.70121 13.0978C4.88741 12.8342 5.1507 12.6346 5.4549 12.5267L6.50907 12.1517C6.71484 12.0785 6.90296 11.9629 7.0613 11.8125C7.21964 11.6621 7.34466 11.4801 7.4283 11.2784C7.51194 11.0766 7.55233 10.8596 7.54686 10.6412C7.5414 10.4229 7.4902 10.2081 7.39657 10.0108L6.91657 8.99999C6.77678 8.70842 6.73093 8.38065 6.78537 8.06192C6.83981 7.74319 6.99184 7.44921 7.22048 7.22057C7.44912 6.99193 7.7431 6.8399 8.06183 6.78546C8.38056 6.73103 8.70833 6.77687 8.9999 6.91666L10.0107 7.39666C10.208 7.49033 10.4227 7.54161 10.641 7.54719C10.8593 7.55278 11.0764 7.51254 11.2782 7.42907C11.48 7.3456 11.662 7.22076 11.8126 7.0626C11.9632 6.90444 12.0789 6.71648 12.1524 6.51083L12.5274 5.45666C12.6355 5.15275 12.8351 4.88976 13.0987 4.70378C13.3622 4.51781 13.6769 4.41797 13.9995 4.41797C14.3221 4.41797 14.6367 4.51781 14.9003 4.70378C15.1639 4.88976 15.3634 5.15275 15.4716 5.45666L15.8466 6.51083C15.9197 6.71681 16.0353 6.90514 16.1859 7.06363C16.3364 7.22212 16.5186 7.34724 16.7205 7.4309C16.9225 7.51455 17.1397 7.55488 17.3582 7.54927C17.5768 7.54366 17.7917 7.49224 17.9891 7.39833L18.9999 6.91666C19.2915 6.77741 19.619 6.73197 19.9375 6.78661C20.256 6.84125 20.5497 6.99328 20.7781 7.22176C21.0066 7.45023 21.1586 7.74393 21.2133 8.06239C21.2679 8.38085 21.2225 8.70842 21.0832 8.99999L20.6016 10.0108Z" fill="#CEF1F2" stroke="#CEF1F2" stroke-width="0.833333" stroke-linecap="round" stroke-linejoin="round"/>
<path d="M10.249 14.0009C10.249 14.9954 10.6441 15.9492 11.3474 16.6525C12.0506 17.3558 13.0045 17.7509 13.999 17.7509C14.9936 17.7509 15.9474 17.3558 16.6507 16.6525C17.3539 15.9492 17.749 14.9954 17.749 14.0009C17.749 13.0063 17.3539 12.0525 16.6507 11.3492C15.9474 10.6459 14.9936 10.2509 13.999 10.2509C13.0045 10.2509 12.0506 10.6459 11.3474 11.3492C10.6441 12.0525 10.249 13.0063 10.249 14.0009Z" fill="#CEF1F2" stroke="#CEF1F2" stroke-width="0.833333" stroke-linecap="round" stroke-linejoin="round"/>
</g>
<g clip-path="url(#clip1)">
<path d="M16.6016 6.01083C16.5077 6.20822 16.4562 6.42313 16.4506 6.64165C16.445 6.86017 16.4853 7.07743 16.569 7.27939C16.6526 7.48134 16.7778 7.66348 16.9363 7.81402C17.0948 7.96457 17.2831 8.08016 17.4891 8.15333L18.5432 8.52833C18.8474 8.63629 19.1107 8.83583 19.2969 9.0995C19.4831 9.36317 19.5831 9.67804 19.5831 10.0008C19.5831 10.3236 19.4831 10.6385 19.2969 10.9022C19.1107 11.1658 18.8474 11.3654 18.5432 11.4733L17.4891 11.8483C17.2831 11.9215 17.0948 12.0371 16.9363 12.1876C16.7778 12.3382 16.6526 12.5203 16.569 12.7223C16.4853 12.9242 16.445 13.1415 16.4506 13.36C16.4562 13.5785 16.5077 13.7934 16.6016 13.9908L17.0832 15C17.2225 15.2916 17.2679 15.6191 17.2133 15.9376C17.1586 16.2561 17.0066 16.5498 16.7781 16.7782C16.5497 17.0067 16.256 17.1587 15.9375 17.2134C15.619 17.268 15.2915 17.2226 14.9999 17.0833L13.9891 16.6033C13.7917 16.5094 13.5768 16.458 13.3582 16.4524C13.1397 16.4468 12.9225 16.4871 12.7205 16.5708C12.5186 16.6544 12.3364 16.7795 12.1859 16.938C12.0353 17.0965 11.9197 17.2848 11.8466 17.4908L11.4716 18.545C11.3634 18.8489 11.1639 19.1119 10.9003 19.2979C10.6367 19.4838 10.3221 19.5837 9.99948 19.5837C9.67691 19.5837 9.36224 19.4838 9.09866 19.2979C8.83509 19.1119 8.63554 18.8489 8.5274 18.545L8.1524 17.4908C8.07914 17.2848 7.96346 17.0965 7.81284 16.938C7.66221 16.7795 7.48 16.6544 7.27799 16.5707C7.07597 16.4871 6.85864 16.4467 6.64007 16.4524C6.42149 16.458 6.20652 16.5094 6.00907 16.6033L4.9999 17.0833C4.70833 17.2231 4.38056 17.269 4.06183 17.2145C3.7431 17.1601 3.44912 17.0081 3.22048 16.7794C2.99184 16.5508 2.83981 16.2568 2.78537 15.9381C2.73093 15.6193 2.77678 15.2916 2.91657 15L3.39657 13.9892C3.49048 13.7918 3.5419 13.5769 3.54751 13.3583C3.55312 13.1398 3.5128 12.9226 3.42914 12.7206C3.34549 12.5186 3.22036 12.3365 3.06187 12.186C2.90338 12.0354 2.71505 11.9198 2.50907 11.8467L1.4549 11.4717C1.1507 11.3637 0.887412 11.1642 0.701211 10.9005C0.51501 10.6368 0.415039 10.3219 0.415039 9.99916C0.415039 9.67637 0.51501 9.3615 0.701211 9.09783C0.887412 8.83416 1.1507 8.63463 1.4549 8.52666L2.50907 8.15166C2.71484 8.07846 2.90296 7.96292 3.0613 7.8125C3.21964 7.66207 3.34466 7.48011 3.4283 7.27836C3.51194 7.07661 3.55233 6.85956 3.54686 6.64123C3.5414 6.42289 3.4902 6.20814 3.39657 6.01083L2.91657 4.99999C2.77678 4.70842 2.73093 4.38065 2.78537 4.06192C2.83981 3.74319 2.99184 3.44921 3.22048 3.22057C3.44912 2.99193 3.7431 2.8399 4.06183 2.78546C4.38056 2.73103 4.70833 2.77687 4.9999 2.91666L6.01073 3.39666C6.208 3.49033 6.42271 3.54161 6.64102 3.54719C6.85932 3.55278 7.07638 3.51254 7.27817 3.42907C7.47997 3.3456 7.66203 3.22076 7.81261 3.0626C7.96319 2.90444 8.07894 2.71648 8.1524 2.51083L8.5274 1.45666C8.63554 1.15275 8.83509 0.889756 9.09866 0.703782C9.36224 0.517808 9.67691 0.417969 9.99948 0.417969C10.3221 0.417969 10.6367 0.517808 10.9003 0.703782C11.1639 0.889756 11.3634 1.15275 11.4716 1.45666L11.8466 2.51083C11.9197 2.71681 12.0353 2.90514 12.1859 3.06363C12.3364 3.22212 12.5186 3.34724 12.7205 3.4309C12.9225 3.51455 13.1397 3.55488 13.3582 3.54927C13.5768 3.54366 13.7917 3.49224 13.9891 3.39833L14.9999 2.91666C15.2915 2.77741 15.619 2.73197 15.9375 2.78661C16.256 2.84125 16.5497 2.99328 16.7781 3.22176C17.0066 3.45023 17.1586 3.74393 17.2133 4.06239C17.2679 4.38085 17.2225 4.70842 17.0832 4.99999L16.6016 6.01083Z" stroke="#03A9F4" stroke-width="0.833333" stroke-linecap="round" stroke-linejoin="round"/>
<path d="M6.24902 10.0009C6.24902 10.9954 6.64411 11.9492 7.34737 12.6525C8.05063 13.3558 9.00446 13.7509 9.99902 13.7509C10.9936 13.7509 11.9474 13.3558 12.6507 12.6525C13.3539 11.9492 13.749 10.9954 13.749 10.0009C13.749 9.00629 13.3539 8.05247 12.6507 7.3492C11.9474 6.64594 10.9936 6.25085 9.99902 6.25085C9.00446 6.25085 8.05063 6.64594 7.34737 7.3492C6.64411 8.05247 6.24902 9.00629 6.24902 10.0009V10.0009Z" stroke="#03A9F4" stroke-width="0.833333" stroke-linecap="round" stroke-linejoin="round"/>
</g>
<defs>
<clipPath id="clip0">
<rect width="20" height="20" fill="white" transform="translate(4 4)"/>
</clipPath>
<clipPath id="clip1">
<rect width="20" height="20" fill="white"/>
</clipPath>
</defs>
</svg>
