<svg width="20" height="20" viewBox="0 0 20 20" fill="none" xmlns="http://www.w3.org/2000/svg">
<path d="M3.75 7.08325H11.6667" stroke="black" stroke-width="0.833333" stroke-linecap="round" stroke-linejoin="round"/>
<path d="M3.75 9.58325H8.75" stroke="black" stroke-width="0.833333" stroke-linecap="round" stroke-linejoin="round"/>
<path d="M3.75 4.58325H9.58333" stroke="black" stroke-width="0.833333" stroke-linecap="round" stroke-linejoin="round"/>
<path d="M3.75 12.0833H7.08333" stroke="black" stroke-width="0.833333" stroke-linecap="round" stroke-linejoin="round"/>
<path d="M3.75 14.5833H7.08333" stroke="black" stroke-width="0.833333" stroke-linecap="round" stroke-linejoin="round"/>
<path d="M8.75008 19.5833H1.25008C1.02907 19.5833 0.817106 19.4955 0.660826 19.3392C0.504545 19.1829 0.416748 18.971 0.416748 18.75V1.24996C0.416748 1.02895 0.504545 0.816984 0.660826 0.660704C0.817106 0.504423 1.02907 0.416626 1.25008 0.416626H12.3276C12.5486 0.416673 12.7605 0.504501 12.9167 0.660793L16.0059 3.74996C16.1622 3.9062 16.25 4.11813 16.2501 4.33913V7.08329" stroke="black" stroke-width="0.833333" stroke-linecap="round" stroke-linejoin="round"/>
<path d="M14.575 16.0778C14.6162 16.0778 14.6565 16.09 14.6908 16.1129C14.725 16.1358 14.7517 16.1683 14.7675 16.2064C14.7833 16.2444 14.7874 16.2863 14.7794 16.3267C14.7713 16.3671 14.7515 16.4043 14.7223 16.4334C14.6932 16.4625 14.6561 16.4824 14.6157 16.4904C14.5753 16.4985 14.5334 16.4943 14.4953 16.4786C14.4572 16.4628 14.4247 16.4361 14.4018 16.4018C14.3789 16.3676 14.3667 16.3273 14.3667 16.2861C14.3667 16.2308 14.3886 16.1778 14.4277 16.1388C14.4668 16.0997 14.5198 16.0778 14.575 16.0778Z" stroke="black" stroke-width="0.833333" stroke-linecap="round" stroke-linejoin="round"/>
<path d="M14.5752 14.4108V11.9108" stroke="black" stroke-width="0.833333" stroke-linecap="round" stroke-linejoin="round"/>
<path d="M15.2734 9.41688C15.206 9.29014 15.1055 9.18412 14.9824 9.11019C14.8594 9.03625 14.7186 8.99719 14.5751 8.99719C14.4315 8.99719 14.2907 9.03625 14.1677 9.11019C14.0447 9.18412 13.9441 9.29014 13.8767 9.41688L9.66673 17.4427C9.60446 17.561 9.57416 17.6935 9.57884 17.8271C9.58352 17.9607 9.623 18.0907 9.69339 18.2044C9.76408 18.3189 9.86295 18.4133 9.98054 18.4786C10.0981 18.544 10.2305 18.5781 10.3651 18.5777H18.7884C18.9231 18.5782 19.0556 18.5441 19.1733 18.4787C19.2911 18.4134 19.3901 18.3189 19.4609 18.2044C19.531 18.0906 19.5702 17.9605 19.5748 17.827C19.5793 17.6934 19.549 17.561 19.4867 17.4427L15.2734 9.41688Z" stroke="black" stroke-width="0.833333" stroke-linecap="round" stroke-linejoin="round"/>
</svg>
