<svg width="20" height="20" viewBox="0 0 20 20" fill="none" xmlns="http://www.w3.org/2000/svg">
<path d="M17.9165 0.416626C18.3585 0.416626 18.7825 0.592221 19.095 0.904781C19.4076 1.21734 19.5832 1.64127 19.5832 2.08329V14.6041C19.5832 15.9247 19.0586 17.1912 18.1248 18.1249C17.191 19.0587 15.9246 19.5833 14.604 19.5833H2.08317C1.64114 19.5833 1.21722 19.4077 0.904659 19.0951C0.592099 18.7826 0.416504 18.3587 0.416504 17.9166V2.08329C0.416504 1.64127 0.592099 1.21734 0.904659 0.904781C1.21722 0.592221 1.64114 0.416626 2.08317 0.416626H17.9165Z" stroke="black" stroke-width="0.833333" stroke-linecap="round" stroke-linejoin="round"/>
<path d="M15.4165 19.5166V16.25C15.4165 16.0289 15.5043 15.817 15.6606 15.6607C15.8169 15.5044 16.0288 15.4166 16.2498 15.4166H19.5165" stroke="black" stroke-width="0.833333" stroke-linecap="round" stroke-linejoin="round"/>
<path d="M2.9165 5.41663H17.0832" stroke="black" stroke-width="0.833333" stroke-linecap="round" stroke-linejoin="round"/>
<path d="M2.9165 8.75H17.0832" stroke="black" stroke-width="0.833333" stroke-linecap="round" stroke-linejoin="round"/>
<path d="M2.9165 12.0833H17.0832" stroke="black" stroke-width="0.833333" stroke-linecap="round" stroke-linejoin="round"/>
<path d="M2.9165 15.4166H12.0832" stroke="black" stroke-width="0.833333" stroke-linecap="round" stroke-linejoin="round"/>
<path d="M5.4165 2.91663V17.0833" stroke="black" stroke-width="0.833333" stroke-linecap="round" stroke-linejoin="round"/>
</svg>
