<svg width="22" height="22" viewBox="0 0 22 22" fill="none" xmlns="http://www.w3.org/2000/svg">
<path d="M21.5418 8.70834C21.5418 8.46523 21.4452 8.23207 21.2733 8.06016C21.1014 7.88825 20.8683 7.79168 20.6252 7.79168H14.2085V1.37501C14.2085 1.13189 14.1119 0.898737 13.94 0.726829C13.7681 0.554921 13.5349 0.458344 13.2918 0.458344H8.70849C8.46538 0.458344 8.23222 0.554921 8.06031 0.726829C7.88841 0.898737 7.79183 1.13189 7.79183 1.37501V7.79168H1.37516C1.13205 7.79168 0.89889 7.88825 0.726982 8.06016C0.555073 8.23207 0.458496 8.46523 0.458496 8.70834V13.2917C0.458496 13.5348 0.555073 13.7679 0.726982 13.9399C0.89889 14.1118 1.13205 14.2083 1.37516 14.2083H7.79183V20.625C7.79183 20.8681 7.88841 21.1013 8.06031 21.2732C8.23222 21.4451 8.46538 21.5417 8.70849 21.5417H13.2918C13.5349 21.5417 13.7681 21.4451 13.94 21.2732C14.1119 21.1013 14.2085 20.8681 14.2085 20.625V14.2083H20.6252C20.8683 14.2083 21.1014 14.1118 21.2733 13.9399C21.4452 13.7679 21.5418 13.5348 21.5418 13.2917V8.70834Z" stroke="black" stroke-width="0.833333" stroke-linecap="round" stroke-linejoin="round"/>
</svg>
