<svg width="20" height="20" viewBox="0 0 20 20" fill="none" xmlns="http://www.w3.org/2000/svg">
<g clip-path="url(#clip0)">
<path d="M4.84406 9.34336C4.92704 9.43547 5.02845 9.50911 5.14172 9.55952C5.25498 9.60993 5.37758 9.63598 5.50156 9.63598C5.62553 9.63598 5.74813 9.60993 5.86139 9.55952C5.97466 9.50911 6.07607 9.43547 6.15906 9.34336L6.58406 8.87336C6.70665 8.73784 6.86815 8.64355 7.04642 8.60342C7.2247 8.56328 7.41103 8.57926 7.57987 8.64917C7.74871 8.71908 7.89179 8.83949 7.98952 8.99391C8.08724 9.14832 8.13482 9.32918 8.12572 9.5117L8.09322 10.145C8.08701 10.2687 8.10679 10.3923 8.15129 10.5078C8.19578 10.6234 8.26401 10.7283 8.35156 10.8159C8.43911 10.9034 8.54405 10.9716 8.65959 11.0161C8.77514 11.0606 8.89873 11.0804 9.02239 11.0742L9.65572 11.0417C9.83831 11.0324 10.0193 11.0799 10.1738 11.1775C10.3284 11.2752 10.449 11.4182 10.519 11.5871C10.589 11.756 10.605 11.9424 10.5649 12.1208C10.5248 12.2991 10.4305 12.4607 10.2949 12.5834L9.82406 13.0084C9.73195 13.0913 9.65831 13.1928 9.6079 13.306C9.55749 13.4193 9.53144 13.5419 9.53144 13.6659C9.53144 13.7898 9.55749 13.9124 9.6079 14.0257C9.65831 14.139 9.73195 14.2404 9.82406 14.3234L10.2949 14.7484C10.4305 14.871 10.5248 15.0326 10.5649 15.2109C10.605 15.3893 10.589 15.5757 10.519 15.7446C10.449 15.9135 10.3284 16.0566 10.1738 16.1542C10.0193 16.2519 9.83831 16.2993 9.65572 16.29L9.02239 16.2575C8.89873 16.2513 8.77514 16.2711 8.65959 16.3156C8.54405 16.3601 8.43911 16.4283 8.35156 16.5159C8.26401 16.6034 8.19578 16.7084 8.15129 16.8239C8.10679 16.9394 8.08701 17.063 8.09322 17.1867L8.12572 17.82C8.13482 18.0025 8.08724 18.1834 7.98952 18.3378C7.89179 18.4922 7.74871 18.6126 7.57987 18.6826C7.41103 18.7525 7.2247 18.7684 7.04642 18.7283C6.86815 18.6882 6.70665 18.5939 6.58406 18.4584L6.15906 17.9884C6.07607 17.8963 5.97466 17.8226 5.86139 17.7722C5.74813 17.7218 5.62553 17.6957 5.50156 17.6957C5.37758 17.6957 5.25498 17.7218 5.14172 17.7722C5.02845 17.8226 4.92704 17.8963 4.84406 17.9884L4.41906 18.4584C4.29647 18.5939 4.13496 18.6882 3.95669 18.7283C3.77841 18.7684 3.59208 18.7525 3.42324 18.6826C3.2544 18.6126 3.11132 18.4922 3.01359 18.3378C2.91587 18.1834 2.8683 18.0025 2.87739 17.82L2.90989 17.1867C2.9161 17.063 2.89632 16.9394 2.85182 16.8239C2.80733 16.7084 2.7391 16.6034 2.65155 16.5159C2.564 16.4283 2.45906 16.3601 2.34352 16.3156C2.22797 16.2711 2.10438 16.2513 1.98072 16.2575L1.34739 16.29C1.16525 16.2987 0.984863 16.251 0.830866 16.1533C0.676868 16.0556 0.556759 15.9128 0.486936 15.7444C0.417112 15.5759 0.400975 15.39 0.440729 15.2121C0.480482 15.0341 0.574188 14.8728 0.709056 14.75L1.17906 14.325C1.27116 14.242 1.34481 14.1406 1.39522 14.0274C1.44562 13.9141 1.47167 13.7915 1.47167 13.6675C1.47167 13.5436 1.44562 13.421 1.39522 13.3077C1.34481 13.1944 1.27116 13.093 1.17906 13.01L0.709056 12.5834C0.573537 12.4608 0.479248 12.2993 0.439111 12.121C0.398975 11.9427 0.414956 11.7564 0.484865 11.5875C0.554773 11.4187 0.675187 11.2756 0.829602 11.1779C0.984017 11.0802 1.16488 11.0326 1.34739 11.0417L1.98072 11.0742C2.10438 11.0804 2.22797 11.0606 2.34352 11.0161C2.45906 10.9716 2.564 10.9034 2.65155 10.8159C2.7391 10.7283 2.80733 10.6234 2.85182 10.5078C2.89632 10.3923 2.9161 10.2687 2.90989 10.145L2.87739 9.5117C2.8683 9.32918 2.91587 9.14832 3.01359 8.99391C3.11132 8.83949 3.2544 8.71908 3.42324 8.64917C3.59208 8.57926 3.77841 8.56328 3.95669 8.60342C4.13496 8.64355 4.29647 8.73784 4.41906 8.87336L4.84406 9.34336Z" stroke="white" stroke-linecap="round" stroke-linejoin="round"/>
<path d="M3.46729 13.6658C3.46729 14.2053 3.6816 14.7227 4.06308 15.1041C4.44456 15.4856 4.96196 15.6999 5.50145 15.6999C6.04095 15.6999 6.55834 15.4856 6.93983 15.1041C7.32131 14.7227 7.53562 14.2053 7.53562 13.6658C7.53562 13.1263 7.32131 12.6089 6.93983 12.2274C6.55834 11.8459 6.04095 11.6316 5.50145 11.6316C4.96196 11.6316 4.44456 11.8459 4.06308 12.2274C3.6816 12.6089 3.46729 13.1263 3.46729 13.6658Z" stroke="white" stroke-linecap="round" stroke-linejoin="round"/>
<path d="M15.1555 10.6583C15.0726 10.5662 14.9711 10.4925 14.8579 10.4421C14.7446 10.3917 14.622 10.3657 14.498 10.3657C14.3741 10.3657 14.2515 10.3917 14.1382 10.4421C14.0249 10.4925 13.9235 10.5662 13.8405 10.6583L13.4155 11.1291C13.2929 11.2647 13.1313 11.359 12.953 11.3991C12.7746 11.4393 12.5882 11.4232 12.4193 11.3532C12.2504 11.2832 12.1073 11.1626 12.0097 11.0081C11.912 10.8535 11.8646 10.6725 11.8739 10.49L11.9064 9.85662C11.9126 9.73296 11.8928 9.60937 11.8483 9.49382C11.8038 9.37828 11.7356 9.27334 11.648 9.18579C11.5605 9.09824 11.4556 9.03001 11.34 8.98551C11.2245 8.94102 11.1009 8.92124 10.9772 8.92745L10.3439 8.95995C10.1613 8.96923 9.98031 8.92179 9.82575 8.82413C9.6712 8.72648 9.55064 8.5834 9.48063 8.41452C9.41061 8.24564 9.39456 8.05923 9.43468 7.88087C9.4748 7.7025 9.56912 7.54092 9.70471 7.41828L10.1755 6.99328C10.2677 6.9103 10.3413 6.80889 10.3917 6.69562C10.4421 6.58235 10.4682 6.45976 10.4682 6.33578C10.4682 6.21181 10.4421 6.08921 10.3917 5.97595C10.3413 5.86268 10.2677 5.76127 10.1755 5.67828L9.70471 5.25328C9.56912 5.13065 9.4748 4.96907 9.43468 4.7907C9.39456 4.61234 9.41061 4.42593 9.48063 4.25705C9.55064 4.08817 9.6712 3.94509 9.82575 3.84743C9.98031 3.74978 10.1613 3.70234 10.3439 3.71162L10.9772 3.74412C11.1009 3.75033 11.2245 3.73055 11.34 3.68605C11.4556 3.64156 11.5605 3.57333 11.648 3.48578C11.7356 3.39823 11.8038 3.29329 11.8483 3.17775C11.8928 3.0622 11.9126 2.93861 11.9064 2.81495L11.8739 2.18162C11.8648 1.9991 11.9124 1.81825 12.0101 1.66383C12.1078 1.50942 12.2509 1.389 12.4197 1.31909C12.5886 1.24918 12.7749 1.2332 12.9532 1.27334C13.1315 1.31348 13.293 1.40777 13.4155 1.54328L13.8405 2.01328C13.9235 2.10539 14.0249 2.17904 14.1382 2.22944C14.2515 2.27985 14.3741 2.3059 14.498 2.3059C14.622 2.3059 14.7446 2.27985 14.8579 2.22944C14.9711 2.17904 15.0726 2.10539 15.1555 2.01328L15.5805 1.54328C15.7031 1.40777 15.8646 1.31348 16.0429 1.27334C16.2212 1.2332 16.4075 1.24918 16.5764 1.31909C16.7452 1.389 16.8883 1.50942 16.986 1.66383C17.0837 1.81825 17.1313 1.9991 17.1222 2.18162L17.0897 2.81495C17.0835 2.93861 17.1033 3.0622 17.1478 3.17775C17.1923 3.29329 17.2605 3.39823 17.348 3.48578C17.4356 3.57333 17.5405 3.64156 17.6561 3.68605C17.7716 3.73055 17.8952 3.75033 18.0189 3.74412L18.6522 3.71162C18.8347 3.70253 19.0156 3.7501 19.17 3.84782C19.3244 3.94555 19.4448 4.08863 19.5147 4.25747C19.5846 4.42631 19.6006 4.61264 19.5605 4.79092C19.5204 4.96919 19.4261 5.13069 19.2905 5.25328L18.8205 5.67828C18.7284 5.76127 18.6548 5.86268 18.6044 5.97595C18.554 6.08921 18.5279 6.21181 18.5279 6.33578C18.5279 6.45976 18.554 6.58235 18.6044 6.69562C18.6548 6.80889 18.7284 6.9103 18.8205 6.99328L19.2905 7.41828C19.4261 7.54087 19.5204 7.70238 19.5605 7.88065C19.6006 8.05893 19.5846 8.24526 19.5147 8.4141C19.4448 8.58294 19.3244 8.72602 19.17 8.82375C19.0156 8.92147 18.8347 8.96904 18.6522 8.95995L18.0189 8.92745C17.8952 8.92124 17.7716 8.94102 17.6561 8.98551C17.5405 9.03001 17.4356 9.09824 17.348 9.18579C17.2605 9.27334 17.1923 9.37828 17.1478 9.49382C17.1033 9.60937 17.0835 9.73296 17.0897 9.85662L17.1222 10.49C17.1315 10.6725 17.084 10.8535 16.9864 11.0081C16.8887 11.1626 16.7457 11.2832 16.5768 11.3532C16.4079 11.4232 16.2215 11.4393 16.0431 11.3991C15.8648 11.359 15.7032 11.2647 15.5805 11.1291L15.1555 10.6583Z" stroke="white" stroke-linecap="round" stroke-linejoin="round"/>
<path d="M12.4639 6.33568C12.4639 6.60281 12.5165 6.86733 12.6187 7.11412C12.7209 7.36092 12.8708 7.58516 13.0597 7.77405C13.2486 7.96294 13.4728 8.11278 13.7196 8.21501C13.9664 8.31723 14.2309 8.36985 14.498 8.36985C14.7652 8.36985 15.0297 8.31723 15.2765 8.21501C15.5233 8.11278 15.7475 7.96294 15.9364 7.77405C16.1253 7.58516 16.2751 7.36092 16.3774 7.11412C16.4796 6.86733 16.5322 6.60281 16.5322 6.33568C16.5322 6.06855 16.4796 5.80403 16.3774 5.55724C16.2751 5.31044 16.1253 5.0862 15.9364 4.89731C15.7475 4.70842 15.5233 4.55858 15.2765 4.45636C15.0297 4.35413 14.7652 4.30151 14.498 4.30151C14.2309 4.30151 13.9664 4.35413 13.7196 4.45636C13.4728 4.55858 13.2486 4.70842 13.0597 4.89731C12.8708 5.0862 12.7209 5.31044 12.6187 5.55724C12.5165 5.80403 12.4639 6.06855 12.4639 6.33568V6.33568Z" stroke="white" stroke-linecap="round" stroke-linejoin="round"/>
</g>
<defs>
<clipPath id="clip0">
<rect width="20" height="20" fill="white"/>
</clipPath>
</defs>
</svg>
