<svg width="14" height="14" viewBox="0 0 14 14" fill="none" xmlns="http://www.w3.org/2000/svg">
<path d="M11.1207 4.39547V1.70088C11.1207 1.62795 11.0932 1.55802 11.0443 1.50645C10.9954 1.45489 10.9291 1.42592 10.8599 1.42592H9.81649C9.74731 1.42592 9.68096 1.45489 9.63205 1.50645C9.58313 1.55802 9.55565 1.62795 9.55565 1.70088V2.8777L7.38436 0.772066C7.33618 0.725226 7.27304 0.699219 7.2075 0.699219C7.14196 0.699219 7.07883 0.725226 7.03065 0.772066L1.29202 6.44776C1.25332 6.48529 1.22628 6.53427 1.21445 6.58828C1.20262 6.64229 1.20655 6.6988 1.22573 6.75042C1.24491 6.80203 1.27844 6.84632 1.32192 6.8775C1.36541 6.90867 1.41681 6.92526 1.4694 6.92509H2.77363V12.1493C2.77363 12.2951 2.8286 12.435 2.92643 12.5382C3.02427 12.6413 3.15696 12.6992 3.29533 12.6992H11.1207C11.2591 12.6992 11.3918 12.6413 11.4896 12.5382C11.5875 12.435 11.6424 12.2951 11.6424 12.1493V6.92509H12.9467C12.9992 6.92515 13.0505 6.90848 13.0939 6.87726C13.1373 6.84605 13.1708 6.80175 13.1899 6.75016C13.209 6.69857 13.2129 6.6421 13.201 6.58814C13.1892 6.53418 13.1622 6.48525 13.1235 6.44776L11.1207 4.39547Z" stroke="#4A4A4A" stroke-width="0.7" stroke-linecap="round" stroke-linejoin="round"/>
</svg>
