<svg width="30" height="30" viewBox="0 0 30 30" fill="none" xmlns="http://www.w3.org/2000/svg">
<path d="M20.375 19.8637H23.375C23.375 19.8637 28.75 19.1625 28.75 13.885C28.7506 13.082 28.5891 12.2871 28.2751 11.548C27.9611 10.8089 27.5012 10.1408 26.9229 9.58369C26.3445 9.02659 25.6597 8.59198 24.9094 8.30588C24.159 8.01979 23.3587 7.88811 22.5563 7.91873C21.7646 6.23857 20.4358 4.87003 18.7797 4.02926C17.1236 3.18849 15.2346 2.92341 13.4111 3.27591C11.5875 3.62841 9.93339 4.57838 8.70993 5.97577C7.48647 7.37317 6.76342 9.13835 6.655 10.9925C6.00268 10.8553 5.32797 10.8653 4.68001 11.0218C4.03205 11.1784 3.42716 11.4774 2.90938 11.8972C2.39161 12.3171 1.97398 12.8471 1.68693 13.4487C1.39987 14.0503 1.2506 14.7084 1.25 15.375C1.25 19.9312 6.0325 19.86 6.0325 19.86H9.61125" stroke="black" stroke-width="0.833333" stroke-linecap="round" stroke-linejoin="round"/>
<path d="M15 12.9886V26.7386" stroke="black" stroke-width="0.833333" stroke-linecap="round" stroke-linejoin="round"/>
<path d="M18.75 16.7386L15 12.9886L11.25 16.7386" stroke="black" stroke-width="0.833333" stroke-linecap="round" stroke-linejoin="round"/>
</svg>
