<svg width="20" height="20" viewBox="0 0 20 20" fill="none" xmlns="http://www.w3.org/2000/svg">
<path d="M19.5833 1.25002C19.5833 1.02901 19.4955 0.817045 19.3392 0.660765C19.1829 0.504484 18.971 0.416687 18.75 0.416687H3.74996C3.52895 0.416687 3.31698 0.504484 3.1607 0.660765C3.00442 0.817045 2.91663 1.02901 2.91663 1.25002V16.25C2.91663 16.471 3.00442 16.683 3.1607 16.8393C3.31698 16.9956 3.52895 17.0834 3.74996 17.0834H18.75C18.971 17.0834 19.1829 16.9956 19.3392 16.8393C19.4955 16.683 19.5833 16.471 19.5833 16.25V1.25002Z" stroke="black" stroke-width="0.833333" stroke-linecap="round" stroke-linejoin="round"/>
<path d="M17.4999 13.75L15.2858 7.8425C15.2586 7.77083 15.2123 7.70802 15.1518 7.66098C15.0913 7.61394 15.019 7.5845 14.9429 7.57588C14.8667 7.56727 14.7897 7.57982 14.7202 7.61216C14.6507 7.64449 14.5915 7.69536 14.5491 7.75917L11.6666 12.0833L9.95909 10.0342C9.9165 9.98306 9.86229 9.94288 9.801 9.91701C9.73971 9.89114 9.67311 9.88032 9.60678 9.88546C9.54045 9.8906 9.47631 9.91155 9.41974 9.94656C9.36316 9.98156 9.31579 10.0296 9.28159 10.0867L7.08325 13.75" stroke="black" stroke-width="0.833333" stroke-linecap="round" stroke-linejoin="round"/>
<path d="M7.08325 4.9975C7.08325 5.32902 7.21495 5.64696 7.44937 5.88138C7.68379 6.1158 8.00173 6.2475 8.33325 6.2475C8.66477 6.2475 8.98272 6.1158 9.21714 5.88138C9.45156 5.64696 9.58325 5.32902 9.58325 4.9975C9.58325 4.66598 9.45156 4.34803 9.21714 4.11361C8.98272 3.87919 8.66477 3.7475 8.33325 3.7475C8.00173 3.7475 7.68379 3.87919 7.44937 4.11361C7.21495 4.34803 7.08325 4.66598 7.08325 4.9975V4.9975Z" stroke="black" stroke-width="0.833333" stroke-linecap="round" stroke-linejoin="round"/>
<path d="M19.5833 13.7475H2.91663" stroke="black" stroke-width="0.833333" stroke-linecap="round" stroke-linejoin="round"/>
<path d="M2.91663 3.75H1.24996C1.02895 3.75 0.816984 3.8378 0.660704 3.99408C0.504423 4.15036 0.416626 4.36232 0.416626 4.58333V18.75C0.416626 18.971 0.504423 19.183 0.660704 19.3393C0.816984 19.4955 1.02895 19.5833 1.24996 19.5833H15.4166C15.6376 19.5833 15.8496 19.4955 16.0059 19.3393C16.1622 19.183 16.25 18.971 16.25 18.75V17.0833" stroke="black" stroke-width="0.833333" stroke-linecap="round" stroke-linejoin="round"/>
</svg>
