<svg width="17" height="16" viewBox="0 0 17 16" fill="none" xmlns="http://www.w3.org/2000/svg">
<path d="M8.49668 11.6243C8.55851 11.6243 8.61895 11.6426 8.67035 11.677C8.72176 11.7113 8.76182 11.7601 8.78548 11.8172C8.80914 11.8744 8.81534 11.9372 8.80327 11.9979C8.79121 12.0585 8.76144 12.1142 8.71772 12.1579C8.674 12.2016 8.6183 12.2314 8.55767 12.2435C8.49703 12.2555 8.43417 12.2493 8.37705 12.2257C8.31993 12.202 8.27111 12.1619 8.23677 12.1105C8.20242 12.0591 8.18408 11.9987 8.18408 11.9369C8.18408 11.854 8.21702 11.7744 8.27564 11.7158C8.33426 11.6572 8.41377 11.6243 8.49668 11.6243Z" stroke="white" stroke-linecap="round" stroke-linejoin="round"/>
<path d="M8.49731 9.12276V5.37158" stroke="white" stroke-linecap="round" stroke-linejoin="round"/>
<path d="M9.54523 1.62973C9.44416 1.43956 9.29324 1.28048 9.10865 1.16955C8.92406 1.05861 8.71276 1 8.4974 1C8.28204 1 8.07074 1.05861 7.88615 1.16955C7.70156 1.28048 7.55064 1.43956 7.44957 1.62973L1.13258 13.6723C1.03915 13.8498 0.993687 14.0486 1.00071 14.249C1.00772 14.4495 1.06697 14.6446 1.17259 14.8151C1.27866 14.9869 1.427 15.1286 1.60345 15.2267C1.77989 15.3247 1.97854 15.3759 2.18041 15.3753H14.8194C15.0214 15.376 15.2203 15.3249 15.397 15.2268C15.5736 15.1287 15.7222 14.987 15.8285 14.8151C15.9336 14.6444 15.9925 14.4492 15.9993 14.2488C16.0061 14.0484 15.9606 13.8497 15.8672 13.6723L9.54523 1.62973Z" stroke="white" stroke-linecap="round" stroke-linejoin="round"/>
</svg>
