<svg width="20" height="20" viewBox="0 0 20 20" fill="none" xmlns="http://www.w3.org/2000/svg">
<path d="M11.2498 2.08329C11.2498 2.52532 11.0742 2.94924 10.7617 3.2618C10.4491 3.57436 10.0252 3.74996 9.58317 3.74996C9.14114 3.74996 8.71722 3.57436 8.40466 3.2618C8.0921 2.94924 7.9165 2.52532 7.9165 2.08329V0.416626H11.2498V2.08329Z" stroke="black" stroke-width="0.833333" stroke-linecap="round" stroke-linejoin="round"/>
<path d="M11.25 2.08325H19.5833" stroke="black" stroke-width="0.833333" stroke-linecap="round" stroke-linejoin="round"/>
<path d="M0.416504 2.08325H7.9165" stroke="black" stroke-width="0.833333" stroke-linecap="round" stroke-linejoin="round"/>
<path d="M12.0833 17.0833V12.0833L13.3333 12.9167L14.1667 11.25L11.25 8.75C10.8213 9.23045 10.2249 9.52862 9.58333 9.58333V9.58333C8.94164 9.52895 8.34519 9.23073 7.91667 8.75V8.75L5 11.25L5.83333 12.9167L7.08333 12.0833V17.0833H12.0833Z" stroke="black" stroke-width="0.833333" stroke-linecap="round" stroke-linejoin="round"/>
<path d="M9.58301 12.0833V9.58325" stroke="black" stroke-width="0.833333" stroke-linecap="round" stroke-linejoin="round"/>
<path d="M16.1749 11.9167C16.3791 13.2626 16.1664 14.6387 15.5653 15.8601C14.9643 17.0816 14.0037 18.0897 12.8128 18.7491C11.6218 19.4085 10.2576 19.6874 8.90338 19.5485C7.54918 19.4096 6.26997 18.8595 5.23769 17.9721C4.2054 17.0846 3.46953 15.9025 3.12898 14.5844C2.78842 13.2664 2.85952 11.8758 3.3327 10.5993C3.80589 9.32293 4.65849 8.22196 5.77589 7.44444C6.89329 6.66691 8.22193 6.25009 9.58323 6.25V3.75" stroke="black" stroke-width="0.833333" stroke-linecap="round" stroke-linejoin="round"/>
<path d="M14.4434 8.35327C14.9037 8.84196 15.288 9.39704 15.5834 9.99994" stroke="black" stroke-width="0.833333" stroke-linecap="round" stroke-linejoin="round"/>
<path d="M11.96 6.68579C12.273 6.80582 12.5766 6.94899 12.8683 7.11412" stroke="black" stroke-width="0.833333" stroke-linecap="round" stroke-linejoin="round"/>
</svg>
