<svg width="16" height="16" viewBox="0 0 16 16" fill="none" xmlns="http://www.w3.org/2000/svg">
<g clip-path="url(#clip0)">
<path d="M12.3334 12.6666V15C12.3334 15.1768 12.2631 15.3464 12.1381 15.4714C12.0131 15.5964 11.8435 15.6666 11.6667 15.6666H1.00004C0.82323 15.6666 0.65366 15.5964 0.528636 15.4714C0.403612 15.3464 0.333374 15.1768 0.333374 15V2.99998C0.333374 2.82317 0.403612 2.6536 0.528636 2.52858C0.65366 2.40355 0.82323 2.33331 1.00004 2.33331H3.00004" stroke="black" stroke-width="0.833333" stroke-linecap="round" stroke-linejoin="round"/>
<path d="M9.66675 2.33331H11.6667C11.8436 2.33331 12.0131 2.40355 12.1382 2.52858C12.2632 2.6536 12.3334 2.82317 12.3334 2.99998V5.33331" stroke="black" stroke-width="0.833333" stroke-linecap="round" stroke-linejoin="round"/>
<path d="M5.33337 1.33267C5.33337 1.59789 5.43873 1.85224 5.62627 2.03978C5.8138 2.22731 6.06816 2.33267 6.33337 2.33267C6.59859 2.33267 6.85294 2.22731 7.04048 2.03978C7.22802 1.85224 7.33337 1.59789 7.33337 1.33267C7.33337 1.06746 7.22802 0.813102 7.04048 0.625565C6.85294 0.438029 6.59859 0.332672 6.33337 0.332672C6.06816 0.332672 5.8138 0.438029 5.62627 0.625565C5.43873 0.813102 5.33337 1.06746 5.33337 1.33267V1.33267Z" stroke="black" stroke-width="0.833333" stroke-linecap="round" stroke-linejoin="round"/>
<path d="M7.27667 1.66666H9C9.17681 1.66666 9.34638 1.73689 9.4714 1.86192C9.59643 1.98694 9.66667 2.15651 9.66667 2.33332V2.99999C9.66667 3.1768 9.59643 3.34637 9.4714 3.47139C9.34638 3.59642 9.17681 3.66666 9 3.66666H3.66667C3.48986 3.66666 3.32029 3.59642 3.19526 3.47139C3.07024 3.34637 3 3.1768 3 2.99999V2.33332C3 2.15651 3.07024 1.98694 3.19526 1.86192C3.32029 1.73689 3.48986 1.66666 3.66667 1.66666H5.39" stroke="black" stroke-width="0.833333" stroke-linecap="round" stroke-linejoin="round"/>
<path d="M2.33337 6.33267H10.3334" stroke="black" stroke-width="0.833333" stroke-linecap="round" stroke-linejoin="round"/>
<path d="M2.33337 8.99933H8.64404" stroke="black" stroke-width="0.833333" stroke-linecap="round" stroke-linejoin="round"/>
<path d="M2.33337 11.666H7.65537" stroke="black" stroke-width="0.833333" stroke-linecap="round" stroke-linejoin="round"/>
<path d="M11.3333 11.6667L9 12.3333L9.66667 10L13.6547 6.01201C13.8769 5.79689 14.1748 5.67773 14.484 5.68025C14.7933 5.68276 15.0892 5.80673 15.3079 6.02543C15.5266 6.24413 15.6506 6.54003 15.6531 6.8493C15.6556 7.15858 15.5365 7.45645 15.3213 7.67867L11.3333 11.6667Z" stroke="black" stroke-width="0.833333" stroke-linecap="round" stroke-linejoin="round"/>
</g>
<defs>
<clipPath id="clip0">
<rect width="16" height="16" fill="white"/>
</clipPath>
</defs>
</svg>
