<svg width="20" height="20" viewBox="0 0 20 20" fill="none" xmlns="http://www.w3.org/2000/svg">
<g clip-path="url(#clip0)">
<path d="M12.0833 7.91675C11.5449 7.14507 10.8281 6.51482 9.99386 6.07956C9.15962 5.64431 8.23262 5.41693 7.29167 5.41675C5.68932 5.41675 4.1526 6.05328 3.01956 7.18631C1.88653 8.31934 1.25 9.85607 1.25 11.4584V14.5834H10.2083C10.7055 14.5832 11.1823 14.3856 11.5339 14.034C11.8855 13.6824 12.0831 13.2056 12.0833 12.7084V7.91675Z" stroke="white" stroke-linecap="round" stroke-linejoin="round"/>
<path d="M12.0834 7.91675C12.7465 7.91675 13.3823 8.18014 13.8512 8.64898C14.32 9.11782 14.5834 9.75371 14.5834 10.4167V13.9584C14.5832 14.7871 14.2539 15.5819 13.6679 16.1679C13.0819 16.7539 12.2871 17.0832 11.4584 17.0834H2.50008C2.22649 17.0834 1.95559 17.0295 1.70282 16.9248C1.45006 16.8201 1.2204 16.6667 1.02694 16.4732C0.833487 16.2798 0.68003 16.0501 0.575332 15.7973C0.470635 15.5446 0.416748 15.2737 0.416748 15.0001C0.416748 14.8896 0.460647 14.7836 0.538787 14.7055C0.616927 14.6273 0.722908 14.5834 0.833415 14.5834H1.25008" stroke="white" stroke-linecap="round" stroke-linejoin="round"/>
<path d="M17.9167 6.80249V13.125C17.9167 13.7328 17.6752 14.3157 17.2455 14.7454C16.8157 15.1752 16.2328 15.4167 15.625 15.4167H14.2217" stroke="white" stroke-linecap="round" stroke-linejoin="round"/>
<path d="M16.6667 7.08333C17.2435 7.08333 17.8074 6.91228 18.2871 6.59179C18.7667 6.2713 19.1406 5.81578 19.3613 5.28283C19.5821 4.74988 19.6398 4.16343 19.5273 3.59765C19.4148 3.03188 19.137 2.51218 18.7291 2.10427C18.3212 1.69637 17.8015 1.41858 17.2357 1.30604C16.6699 1.1935 16.0835 1.25126 15.5505 1.47202C15.0176 1.69277 14.562 2.06661 14.2415 2.54625C13.9211 3.0259 13.75 3.58981 13.75 4.16667V6.66667" stroke="white" stroke-linecap="round" stroke-linejoin="round"/>
<path d="M17.0835 2.91675V3.75008" stroke="white" stroke-linecap="round" stroke-linejoin="round"/>
<path d="M5.00684 5.86426L12.0735 12.9068" stroke="white" stroke-linecap="round" stroke-linejoin="round"/>
<path d="M9.835 5.99829L1.25 14.5833" stroke="white" stroke-linecap="round" stroke-linejoin="round"/>
<path d="M1.81763 8.90088L7.50013 14.5834" stroke="white" stroke-linecap="round" stroke-linejoin="round"/>
<path d="M12.0833 10L7.5 14.5833" stroke="white" stroke-linecap="round" stroke-linejoin="round"/>
<path d="M4.58339 17.0833V17.9166C4.58339 18.1376 4.49559 18.3496 4.33931 18.5058C4.18303 18.6621 3.97107 18.7499 3.75006 18.7499H0.900889C0.786198 18.7493 0.675459 18.7079 0.588401 18.6333C0.501342 18.5586 0.443616 18.4555 0.425508 18.3422C0.407399 18.2289 0.430083 18.1129 0.489519 18.0149C0.548955 17.9168 0.641283 17.843 0.750055 17.8066L2.91672 17.0833" stroke="white" stroke-linecap="round" stroke-linejoin="round"/>
<path d="M8.75 17.0833V17.9166C8.75 18.1376 8.8378 18.3496 8.99408 18.5058C9.15036 18.6621 9.36232 18.7499 9.58333 18.7499H12.4325C12.5474 18.7499 12.6585 18.7089 12.746 18.6345C12.8336 18.56 12.8917 18.4568 12.9102 18.3434C12.9286 18.23 12.9061 18.1137 12.8467 18.0154C12.7873 17.917 12.6948 17.843 12.5858 17.8066L10.4167 17.0833" stroke="white" stroke-linecap="round" stroke-linejoin="round"/>
</g>
<defs>
<clipPath id="clip0">
<rect width="20" height="20" fill="white"/>
</clipPath>
</defs>
</svg>
