<svg width="24" height="24" viewBox="0 0 24 24" fill="none" xmlns="http://www.w3.org/2000/svg">
<g clip-path="url(#clip0)">
<path d="M4.36768 20.25H23.5343H4.36768Z" fill="#CEF1F2"/>
<path d="M4.36768 20.25H23.5343" stroke="#CEF1F2" stroke-width="0.833333" stroke-linecap="round" stroke-linejoin="round"/>
<path d="M7.70117 20.25V16.5C7.70117 16.3895 7.65727 16.2836 7.57913 16.2054C7.50099 16.1273 7.39501 16.0834 7.28451 16.0834H5.61784C5.50733 16.0834 5.40135 16.1273 5.32321 16.2054C5.24507 16.2836 5.20117 16.3895 5.20117 16.5V20.25" fill="#CEF1F2"/>
<path d="M7.70117 20.25V16.5C7.70117 16.3895 7.65727 16.2836 7.57913 16.2054C7.50099 16.1273 7.39501 16.0834 7.28451 16.0834H5.61784C5.50733 16.0834 5.40135 16.1273 5.32321 16.2054C5.24507 16.2836 5.20117 16.3895 5.20117 16.5V20.25" stroke="#CEF1F2" stroke-width="0.833333" stroke-linecap="round" stroke-linejoin="round"/>
<path d="M12.7012 20.25V12.3333C12.7012 12.2228 12.6573 12.1168 12.5791 12.0387C12.501 11.9605 12.395 11.9166 12.2845 11.9166H10.6178C10.5073 11.9166 10.4014 11.9605 10.3232 12.0387C10.2451 12.1168 10.2012 12.2228 10.2012 12.3333V20.25" fill="#CEF1F2"/>
<path d="M12.7012 20.25V12.3333C12.7012 12.2228 12.6573 12.1168 12.5791 12.0387C12.501 11.9605 12.395 11.9166 12.2845 11.9166H10.6178C10.5073 11.9166 10.4014 11.9605 10.3232 12.0387C10.2451 12.1168 10.2012 12.2228 10.2012 12.3333V20.25" stroke="#CEF1F2" stroke-width="0.833333" stroke-linecap="round" stroke-linejoin="round"/>
<path d="M17.7012 20.25V14C17.7012 13.8895 17.6573 13.7836 17.5791 13.7054C17.501 13.6273 17.395 13.5834 17.2845 13.5834H15.6178C15.5073 13.5834 15.4014 13.6273 15.3232 13.7054C15.2451 13.7836 15.2012 13.8895 15.2012 14V20.25" fill="#CEF1F2"/>
<path d="M17.7012 20.25V14C17.7012 13.8895 17.6573 13.7836 17.5791 13.7054C17.501 13.6273 17.395 13.5834 17.2845 13.5834H15.6178C15.5073 13.5834 15.4014 13.6273 15.3232 13.7054C15.2451 13.7836 15.2012 13.8895 15.2012 14V20.25" stroke="#CEF1F2" stroke-width="0.833333" stroke-linecap="round" stroke-linejoin="round"/>
<path d="M22.7012 20.25V8.16667C22.7012 8.05616 22.6573 7.95018 22.5791 7.87204C22.501 7.7939 22.395 7.75 22.2845 7.75H20.6178C20.5073 7.75 20.4014 7.7939 20.3232 7.87204C20.2451 7.95018 20.2012 8.05616 20.2012 8.16667V20.25" fill="#CEF1F2"/>
<path d="M22.7012 20.25V8.16667C22.7012 8.05616 22.6573 7.95018 22.5791 7.87204C22.501 7.7939 22.395 7.75 22.2845 7.75H20.6178C20.5073 7.75 20.4014 7.7939 20.3232 7.87204C20.2451 7.95018 20.2012 8.05616 20.2012 8.16667V20.25" stroke="#CEF1F2" stroke-width="0.833333" stroke-linecap="round" stroke-linejoin="round"/>
</g>
<g clip-path="url(#clip1)">
<path d="M0.367676 16.25H19.5343" stroke="#03A9F4" stroke-width="0.833333" stroke-linecap="round" stroke-linejoin="round"/>
<path d="M3.70117 16.25V12.5C3.70117 12.3895 3.65727 12.2836 3.57913 12.2054C3.50099 12.1273 3.39501 12.0834 3.28451 12.0834H1.61784C1.50733 12.0834 1.40135 12.1273 1.32321 12.2054C1.24507 12.2836 1.20117 12.3895 1.20117 12.5V16.25" stroke="#03A9F4" stroke-width="0.833333" stroke-linecap="round" stroke-linejoin="round"/>
<path d="M8.70117 16.25V8.33329C8.70117 8.22279 8.65727 8.1168 8.57913 8.03866C8.50099 7.96052 8.39501 7.91663 8.28451 7.91663H6.61784C6.50733 7.91663 6.40135 7.96052 6.32321 8.03866C6.24507 8.1168 6.20117 8.22279 6.20117 8.33329V16.25" stroke="#03A9F4" stroke-width="0.833333" stroke-linecap="round" stroke-linejoin="round"/>
<path d="M13.7012 16.25V10C13.7012 9.88953 13.6573 9.78355 13.5791 9.70541C13.501 9.62727 13.395 9.58337 13.2845 9.58337H11.6178C11.5073 9.58337 11.4014 9.62727 11.3232 9.70541C11.2451 9.78355 11.2012 9.88953 11.2012 10V16.25" stroke="#03A9F4" stroke-width="0.833333" stroke-linecap="round" stroke-linejoin="round"/>
<path d="M18.7012 16.25V4.16667C18.7012 4.05616 18.6573 3.95018 18.5791 3.87204C18.501 3.7939 18.395 3.75 18.2845 3.75H16.6178C16.5073 3.75 16.4014 3.7939 16.3232 3.87204C16.2451 3.95018 16.2012 4.05616 16.2012 4.16667V16.25" stroke="#03A9F4" stroke-width="0.833333" stroke-linecap="round" stroke-linejoin="round"/>
</g>
<defs>
<clipPath id="clip0">
<rect width="20" height="20" fill="white" transform="translate(4 4)"/>
</clipPath>
<clipPath id="clip1">
<rect width="20" height="20" fill="white"/>
</clipPath>
</defs>
</svg>
