<svg width="20" height="20" viewBox="0 0 20 20" fill="none" xmlns="http://www.w3.org/2000/svg">
<g clip-path="url(#clip0)">
<path d="M16.6016 6.01083C16.5077 6.20822 16.4562 6.42313 16.4506 6.64165C16.445 6.86017 16.4853 7.07743 16.569 7.27939C16.6526 7.48134 16.7778 7.66348 16.9363 7.81402C17.0948 7.96457 17.2831 8.08016 17.4891 8.15333L18.5432 8.52833C18.8474 8.63629 19.1107 8.83583 19.2969 9.0995C19.4831 9.36317 19.5831 9.67804 19.5831 10.0008C19.5831 10.3236 19.4831 10.6385 19.2969 10.9022C19.1107 11.1658 18.8474 11.3654 18.5432 11.4733L17.4891 11.8483C17.2831 11.9215 17.0948 12.0371 16.9363 12.1876C16.7778 12.3382 16.6526 12.5203 16.569 12.7223C16.4853 12.9242 16.445 13.1415 16.4506 13.36C16.4562 13.5785 16.5077 13.7934 16.6016 13.9908L17.0832 15C17.2225 15.2916 17.2679 15.6191 17.2133 15.9376C17.1586 16.2561 17.0066 16.5498 16.7781 16.7782C16.5497 17.0067 16.256 17.1587 15.9375 17.2134C15.619 17.268 15.2915 17.2226 14.9999 17.0833L13.9891 16.6033C13.7917 16.5094 13.5768 16.458 13.3582 16.4524C13.1397 16.4468 12.9225 16.4871 12.7205 16.5708C12.5186 16.6544 12.3364 16.7795 12.1859 16.938C12.0353 17.0965 11.9197 17.2848 11.8466 17.4908L11.4716 18.545C11.3634 18.8489 11.1639 19.1119 10.9003 19.2979C10.6367 19.4838 10.3221 19.5837 9.99948 19.5837C9.67691 19.5837 9.36224 19.4838 9.09866 19.2979C8.83509 19.1119 8.63554 18.8489 8.5274 18.545L8.1524 17.4908C8.07914 17.2848 7.96346 17.0965 7.81284 16.938C7.66221 16.7795 7.48 16.6544 7.27799 16.5707C7.07597 16.4871 6.85864 16.4467 6.64007 16.4524C6.42149 16.458 6.20652 16.5094 6.00907 16.6033L4.9999 17.0833C4.70833 17.2231 4.38056 17.269 4.06183 17.2145C3.7431 17.1601 3.44912 17.0081 3.22048 16.7794C2.99184 16.5508 2.83981 16.2568 2.78537 15.9381C2.73093 15.6193 2.77678 15.2916 2.91657 15L3.39657 13.9892C3.49048 13.7918 3.5419 13.5769 3.54751 13.3583C3.55312 13.1398 3.5128 12.9226 3.42914 12.7206C3.34549 12.5186 3.22036 12.3365 3.06187 12.186C2.90338 12.0354 2.71505 11.9198 2.50907 11.8467L1.4549 11.4717C1.1507 11.3637 0.887412 11.1642 0.701211 10.9005C0.51501 10.6368 0.415039 10.3219 0.415039 9.99916C0.415039 9.67637 0.51501 9.3615 0.701211 9.09783C0.887412 8.83416 1.1507 8.63463 1.4549 8.52666L2.50907 8.15166C2.71484 8.07846 2.90296 7.96292 3.0613 7.8125C3.21964 7.66207 3.34466 7.48011 3.4283 7.27836C3.51194 7.07661 3.55233 6.85956 3.54686 6.64123C3.5414 6.42289 3.4902 6.20814 3.39657 6.01083L2.91657 4.99999C2.77678 4.70842 2.73093 4.38065 2.78537 4.06192C2.83981 3.74319 2.99184 3.44921 3.22048 3.22057C3.44912 2.99193 3.7431 2.8399 4.06183 2.78546C4.38056 2.73103 4.70833 2.77687 4.9999 2.91666L6.01073 3.39666C6.208 3.49033 6.42271 3.54161 6.64102 3.54719C6.85932 3.55278 7.07638 3.51254 7.27817 3.42907C7.47997 3.3456 7.66203 3.22076 7.81261 3.0626C7.96319 2.90444 8.07894 2.71648 8.1524 2.51083L8.5274 1.45666C8.63554 1.15275 8.83509 0.889756 9.09866 0.703782C9.36224 0.517808 9.67691 0.417969 9.99948 0.417969C10.3221 0.417969 10.6367 0.517808 10.9003 0.703782C11.1639 0.889756 11.3634 1.15275 11.4716 1.45666L11.8466 2.51083C11.9197 2.71681 12.0353 2.90514 12.1859 3.06363C12.3364 3.22212 12.5186 3.34724 12.7205 3.4309C12.9225 3.51455 13.1397 3.55488 13.3582 3.54927C13.5768 3.54366 13.7917 3.49224 13.9891 3.39833L14.9999 2.91666C15.2915 2.77741 15.619 2.73197 15.9375 2.78661C16.256 2.84125 16.5497 2.99328 16.7781 3.22176C17.0066 3.45023 17.1586 3.74393 17.2133 4.06239C17.2679 4.38085 17.2225 4.70842 17.0832 4.99999L16.6016 6.01083Z" stroke="black" stroke-width="0.833333" stroke-linecap="round" stroke-linejoin="round"/>
<path d="M6.24902 10.0009C6.24902 10.9954 6.64411 11.9492 7.34737 12.6525C8.05063 13.3558 9.00446 13.7509 9.99902 13.7509C10.9936 13.7509 11.9474 13.3558 12.6507 12.6525C13.3539 11.9492 13.749 10.9954 13.749 10.0009C13.749 9.00629 13.3539 8.05247 12.6507 7.3492C11.9474 6.64594 10.9936 6.25085 9.99902 6.25085C9.00446 6.25085 8.05063 6.64594 7.34737 7.3492C6.64411 8.05247 6.24902 9.00629 6.24902 10.0009V10.0009Z" stroke="black" stroke-width="0.833333" stroke-linecap="round" stroke-linejoin="round"/>
</g>
<defs>
<clipPath id="clip0">
<rect width="20" height="20" fill="white"/>
</clipPath>
</defs>
</svg>
