<svg width="20" height="20" viewBox="0 0 20 20" fill="none" xmlns="http://www.w3.org/2000/svg">
<path d="M4.5835 17.0834H12.1502C12.3908 17.0833 12.6285 17.0311 12.847 16.9304C13.0655 16.8297 13.2596 16.6829 13.416 16.5L15.0152 14.6342C15.2739 14.3325 15.4164 13.9483 15.4168 13.5509V4.58337H4.5835V17.0834Z" stroke="black" stroke-width="0.833333" stroke-linecap="round" stroke-linejoin="round"/>
<path d="M17.9168 2.91667C17.9168 2.69566 17.829 2.4837 17.6728 2.32742C17.5165 2.17114 17.3045 2.08334 17.0835 2.08334H12.5435C12.3273 1.58914 11.9718 1.16868 11.5204 0.873416C11.0689 0.578153 10.5412 0.420898 10.0018 0.420898C9.46242 0.420898 8.93472 0.578153 8.4833 0.873416C8.03188 1.16868 7.67633 1.58914 7.46016 2.08334H2.91683C2.69582 2.08334 2.48385 2.17114 2.32757 2.32742C2.17129 2.4837 2.0835 2.69566 2.0835 2.91667V18.75C2.0835 18.971 2.17129 19.183 2.32757 19.3393C2.48385 19.4955 2.69582 19.5833 2.91683 19.5833H17.0835C17.3045 19.5833 17.5165 19.4955 17.6728 19.3393C17.829 19.183 17.9168 18.971 17.9168 18.75V2.91667Z" stroke="black" stroke-width="0.833333" stroke-linecap="round" stroke-linejoin="round"/>
<path d="M12.917 7.08337H9.16699" stroke="black" stroke-width="0.833333" stroke-linecap="round" stroke-linejoin="round"/>
<path d="M7.0835 7.08337H7.50016" stroke="black" stroke-width="0.833333" stroke-linecap="round" stroke-linejoin="round"/>
<path d="M12.917 10.4166H9.16699" stroke="black" stroke-width="0.833333" stroke-linecap="round" stroke-linejoin="round"/>
<path d="M7.0835 10.4166H7.50016" stroke="black" stroke-width="0.833333" stroke-linecap="round" stroke-linejoin="round"/>
<path d="M11.667 13.75H9.16699" stroke="black" stroke-width="0.833333" stroke-linecap="round" stroke-linejoin="round"/>
<path d="M7.0835 13.75H7.50016" stroke="black" stroke-width="0.833333" stroke-linecap="round" stroke-linejoin="round"/>
</svg>
