<svg width="25" height="24" viewBox="0 0 25 24" fill="none" xmlns="http://www.w3.org/2000/svg">
<path d="M24.5418 10.7083C24.5418 10.4651 24.4452 10.232 24.2733 10.0601C24.1014 9.88816 23.8683 9.79158 23.6252 9.79158H17.2085V3.37492C17.2085 3.1318 17.1119 2.89865 16.94 2.72674C16.7681 2.55483 16.5349 2.45825 16.2918 2.45825H11.7085C11.4654 2.45825 11.2322 2.55483 11.0603 2.72674C10.8884 2.89865 10.7918 3.1318 10.7918 3.37492V9.79158H4.37516C4.13205 9.79158 3.89889 9.88816 3.72698 10.0601C3.55507 10.232 3.4585 10.4651 3.4585 10.7083V15.2916C3.4585 15.5347 3.55507 15.7679 3.72698 15.9398C3.89889 16.1117 4.13205 16.2083 4.37516 16.2083H10.7918V22.6249C10.7918 22.868 10.8884 23.1012 11.0603 23.2731C11.2322 23.445 11.4654 23.5416 11.7085 23.5416H16.2918C16.5349 23.5416 16.7681 23.445 16.94 23.2731C17.1119 23.1012 17.2085 22.868 17.2085 22.6249V16.2083H23.6252C23.8683 16.2083 24.1014 16.1117 24.2733 15.9398C24.4452 15.7679 24.5418 15.5347 24.5418 15.2916V10.7083Z" fill="#5CD0D2" fill-opacity="0.3"/>
<path d="M21.5418 8.70837C21.5418 8.46526 21.4452 8.2321 21.2733 8.06019C21.1014 7.88828 20.8683 7.79171 20.6252 7.79171H14.2085V1.37504C14.2085 1.13193 14.1119 0.898768 13.94 0.726859C13.7681 0.554951 13.5349 0.458374 13.2918 0.458374H8.70849C8.46538 0.458374 8.23222 0.554951 8.06031 0.726859C7.88841 0.898768 7.79183 1.13193 7.79183 1.37504V7.79171H1.37516C1.13205 7.79171 0.89889 7.88828 0.726982 8.06019C0.555073 8.2321 0.458496 8.46526 0.458496 8.70837V13.2917C0.458496 13.5348 0.555073 13.768 0.726982 13.9399C0.89889 14.1118 1.13205 14.2084 1.37516 14.2084H7.79183V20.625C7.79183 20.8682 7.88841 21.1013 8.06031 21.2732C8.23222 21.4451 8.46538 21.5417 8.70849 21.5417H13.2918C13.5349 21.5417 13.7681 21.4451 13.94 21.2732C14.1119 21.1013 14.2085 20.8682 14.2085 20.625V14.2084H20.6252C20.8683 14.2084 21.1014 14.1118 21.2733 13.9399C21.4452 13.768 21.5418 13.5348 21.5418 13.2917V8.70837Z" stroke="#03A9F4" stroke-width="0.833333" stroke-linecap="round" stroke-linejoin="round"/>
</svg>
