<svg width="17" height="15" viewBox="0 0 17 15" fill="none" xmlns="http://www.w3.org/2000/svg">
<path d="M1.23084 8.59593C1.15767 8.66898 1.09961 8.75574 1.06 8.85126C1.02039 8.94677 1 9.04916 1 9.15256C1 9.25596 1.02039 9.35834 1.06 9.45386C1.09961 9.54937 1.15767 9.63614 1.23084 9.70919L5.00825 13.4872C5.15615 13.6346 5.35643 13.7173 5.56521 13.7173C5.77399 13.7173 5.97426 13.6346 6.12216 13.4872L15.7692 3.8396C15.8423 3.76655 15.9004 3.67979 15.94 3.58427C15.9796 3.48876 16 3.38637 16 3.28297C16 3.17957 15.9796 3.07718 15.94 2.98167C15.9004 2.88616 15.8423 2.79939 15.7692 2.72634L14.2744 1.2309C14.2013 1.1577 14.1144 1.09963 14.0189 1.06001C13.9233 1.02039 13.8209 1 13.7174 1C13.614 1 13.5115 1.02039 13.4159 1.06001C13.3204 1.09963 13.2336 1.1577 13.1605 1.2309L5.56521 8.8268L3.83955 7.10048C3.76644 7.02729 3.67962 6.96922 3.58405 6.9296C3.48848 6.88998 3.38604 6.86959 3.28259 6.86959C3.17914 6.86959 3.0767 6.88998 2.98113 6.9296C2.88556 6.96922 2.79874 7.02729 2.72563 7.10048L1.23084 8.59593Z" stroke="white" stroke-linecap="round" stroke-linejoin="round"/>
</svg>
