<svg width="20" height="20" viewBox="0 0 20 20" fill="none" xmlns="http://www.w3.org/2000/svg">
<path d="M7.08337 9.99998C7.08337 10.383 7.15882 10.7623 7.30539 11.1161C7.45197 11.47 7.66681 11.7915 7.93765 12.0624C8.20848 12.3332 8.53001 12.5481 8.88388 12.6946C9.23775 12.8412 9.61702 12.9166 10 12.9166C10.3831 12.9166 10.7623 12.8412 11.1162 12.6946C11.4701 12.5481 11.7916 12.3332 12.0624 12.0624C12.3333 11.7915 12.5481 11.47 12.6947 11.1161C12.8413 10.7623 12.9167 10.383 12.9167 9.99998C12.9167 9.61696 12.8413 9.23769 12.6947 8.88382C12.5481 8.52995 12.3333 8.20842 12.0624 7.93759C11.7916 7.66675 11.4701 7.45191 11.1162 7.30533C10.7623 7.15875 10.3831 7.08331 10 7.08331C9.61702 7.08331 9.23775 7.15875 8.88388 7.30533C8.53001 7.45191 8.20848 7.66675 7.93765 7.93759C7.66681 8.20842 7.45197 8.52995 7.30539 8.88382C7.15882 9.23769 7.08337 9.61696 7.08337 9.99998V9.99998Z" stroke="black" stroke-width="0.833333" stroke-linecap="round" stroke-linejoin="round"/>
<path d="M19.48 9.72665C18.5109 8.62665 14.635 4.58331 10 4.58331C5.36503 4.58331 1.4892 8.62665 0.52003 9.72665C0.454135 9.80246 0.417847 9.89953 0.417847 9.99998C0.417847 10.1004 0.454135 10.1975 0.52003 10.2733C1.4892 11.3733 5.36503 15.4166 10 15.4166C14.635 15.4166 18.5109 11.3733 19.48 10.2733C19.5459 10.1975 19.5822 10.1004 19.5822 9.99998C19.5822 9.89953 19.5459 9.80246 19.48 9.72665V9.72665Z" stroke="black" stroke-width="0.833333" stroke-linecap="round" stroke-linejoin="round"/>
</svg>
