<svg width="20" height="20" viewBox="0 0 20 20" fill="none" xmlns="http://www.w3.org/2000/svg">
<g clip-path="url(#clip0)">
<path d="M7.50033 17.9165H5.41699" stroke="white" stroke-linecap="round" stroke-linejoin="round"/>
<path d="M17.0835 11.0415C17.1387 11.0415 17.1917 11.0635 17.2308 11.1025C17.2699 11.1416 17.2918 11.1946 17.2918 11.2498" stroke="white" stroke-linecap="round" stroke-linejoin="round"/>
<path d="M16.875 11.2498C16.875 11.1946 16.8969 11.1416 16.936 11.1025C16.9751 11.0635 17.0281 11.0415 17.0833 11.0415" stroke="white" stroke-linecap="round" stroke-linejoin="round"/>
<path d="M17.0833 11.4583C17.0281 11.4583 16.9751 11.4364 16.936 11.3973C16.8969 11.3582 16.875 11.3053 16.875 11.25" stroke="white" stroke-linecap="round" stroke-linejoin="round"/>
<path d="M17.2918 11.25C17.2918 11.3053 17.2699 11.3582 17.2308 11.3973C17.1917 11.4364 17.1387 11.4583 17.0835 11.4583" stroke="white" stroke-linecap="round" stroke-linejoin="round"/>
<path d="M5.41602 16.25H6.25018" stroke="white" stroke-linecap="round" stroke-linejoin="round"/>
<path d="M5.41683 17.9167C5.19582 17.9167 4.98385 17.8289 4.82757 17.6726C4.67129 17.5163 4.5835 17.3043 4.5835 17.0833C4.5835 16.8623 4.67129 16.6504 4.82757 16.4941C4.98385 16.3378 5.19582 16.25 5.41683 16.25" stroke="white" stroke-linecap="round" stroke-linejoin="round"/>
<path d="M6.24994 8.74994C7.9166 8.74994 9.45327 9.99994 10.4166 12.9166C10.8333 14.1666 12.0833 17.9166 12.0833 17.9166H15.4166C15.6376 17.9166 15.8496 18.0044 16.0059 18.1607C16.1621 18.317 16.2499 18.5289 16.2499 18.7499C16.2499 18.971 16.1621 19.1829 16.0059 19.3392C15.8496 19.4955 15.6376 19.5833 15.4166 19.5833H10.4166C10.4166 19.5833 9.14744 17.5124 8.36827 16.2499C7.08327 14.1666 4.68744 12.9508 3.02077 11.8049C1.3541 10.6591 0.227436 8.10494 1.6666 6.24994C3.54077 3.83328 7.15244 4.79161 8.30577 6.12494L11.5133 9.33328C11.6286 9.45266 11.7665 9.54789 11.919 9.6134C12.0715 9.67891 12.2355 9.7134 12.4015 9.71484C12.5675 9.71628 12.7321 9.68465 12.8857 9.6218C13.0393 9.55895 13.1789 9.46614 13.2963 9.34877C13.4136 9.2314 13.5064 9.09184 13.5693 8.93822C13.6321 8.7846 13.6638 8.62 13.6623 8.45403C13.6609 8.28805 13.6264 8.12403 13.5609 7.97152C13.4954 7.81902 13.4002 7.68109 13.2808 7.56578L8.28077 2.55161C8.04627 2.317 7.91458 1.99885 7.91466 1.66715C7.91473 1.33544 8.04658 1.01736 8.28119 0.78286C8.51579 0.548364 8.83394 0.41667 9.16565 0.416748C9.49735 0.416826 9.81544 0.54867 10.0499 0.783277L18.5933 9.32661C18.9268 9.61449 19.1896 9.9753 19.3613 10.3811C19.533 10.7869 19.6089 11.2267 19.5833 11.6666C19.5833 12.9166 18.7499 13.7499 17.0833 13.7499H14.9999L12.9116 15.2133" stroke="white" stroke-linecap="round" stroke-linejoin="round"/>
<path d="M1.40683 6.63997C1.18429 6.59271 0.978867 6.48561 0.812701 6.33021C0.646536 6.17481 0.525931 5.97702 0.463887 5.75813C0.401842 5.53925 0.400709 5.30759 0.460612 5.08811C0.520514 4.86863 0.639179 4.66967 0.803818 4.51265C0.968456 4.35564 1.17282 4.24654 1.39489 4.1971C1.61696 4.14767 1.84831 4.15978 2.06401 4.23212C2.2797 4.30447 2.47157 4.43431 2.61891 4.60766C2.76626 4.781 2.8635 4.99127 2.90017 5.2158" stroke="white" stroke-linecap="round" stroke-linejoin="round"/>
</g>
<defs>
<clipPath id="clip0">
<rect width="20" height="20" fill="white"/>
</clipPath>
</defs>
</svg>
