<svg width="11" height="11" viewBox="0 0 11 11" fill="none" xmlns="http://www.w3.org/2000/svg">
<path d="M6.70459 8.48754L6.70459 9.51713C6.70452 9.55614 6.6935 9.59436 6.67278 9.62741C6.65205 9.66047 6.62247 9.68705 6.58738 9.70411C6.55229 9.72118 6.51312 9.72805 6.47432 9.72394C6.43552 9.71983 6.39866 9.70491 6.36792 9.68088L1.07959 5.52629C1.0548 5.5068 1.03477 5.48193 1.02099 5.45357C1.00721 5.4252 1.00005 5.39408 1.00005 5.36254C1.00005 5.33101 1.00721 5.29989 1.02099 5.27152C1.03477 5.24316 1.0548 5.21829 1.07959 5.19879L6.36751 1.04421C6.39824 1.02018 6.43511 1.00526 6.47391 1.00115C6.51271 0.997041 6.55188 1.00391 6.58696 1.02098C6.62205 1.03804 6.65164 1.06462 6.67236 1.09767C6.69308 1.13073 6.70411 1.16894 6.70417 1.20796L6.70417 2.23754" stroke="#4A4A4A" stroke-width="0.833333" stroke-linecap="round" stroke-linejoin="round"/>
<path d="M10.0377 9.51713C10.0377 9.55614 10.0267 9.59436 10.0059 9.62741C9.98521 9.66047 9.95562 9.68705 9.92053 9.70411C9.88545 9.72118 9.84627 9.72805 9.80747 9.72394C9.76867 9.71983 9.73181 9.70491 9.70107 9.68088L4.41274 5.52629C4.38796 5.5068 4.36792 5.48193 4.35414 5.45357C4.34036 5.4252 4.3332 5.39408 4.3332 5.36254C4.3332 5.33101 4.34036 5.29989 4.35414 5.27152C4.36792 5.24316 4.38796 5.21829 4.41274 5.19879L9.70191 1.04421C9.73264 1.02018 9.76951 1.00526 9.80831 1.00115C9.84711 0.997041 9.88628 1.00391 9.92137 1.02098C9.95645 1.03804 9.98604 1.06462 10.0068 1.09767C10.0275 1.13073 10.0385 1.16894 10.0386 1.20796L10.0377 9.51713Z" stroke="#4A4A4A" stroke-width="0.833333" stroke-linecap="round" stroke-linejoin="round"/>
</svg>
