<svg width="20" height="20" viewBox="0 0 20 20" fill="none" xmlns="http://www.w3.org/2000/svg">
<path d="M3.33337 18.5775C3.33339 18.66 3.35787 18.7405 3.40371 18.8091C3.44954 18.8776 3.51468 18.931 3.59087 18.9625C3.66707 18.994 3.75089 19.0022 3.83174 18.986C3.91258 18.9698 3.98682 18.93 4.04504 18.8717L5.00004 17.9167L6.37171 19.2883C6.41041 19.3271 6.45639 19.3579 6.50701 19.3789C6.55763 19.3999 6.6119 19.4108 6.66671 19.4108C6.72151 19.4108 6.77578 19.3999 6.8264 19.3789C6.87702 19.3579 6.923 19.3271 6.96171 19.2883L8.33337 17.9167L9.70504 19.2883C9.74375 19.3271 9.78973 19.3579 9.84035 19.3789C9.89097 19.3999 9.94523 19.4108 10 19.4108C10.0548 19.4108 10.1091 19.3999 10.1597 19.3789C10.2104 19.3579 10.2563 19.3271 10.295 19.2883L11.6667 17.9167L13.0384 19.2883C13.0771 19.3271 13.1231 19.3579 13.1737 19.3789C13.2243 19.3999 13.2786 19.4108 13.3334 19.4108C13.3882 19.4108 13.4424 19.3999 13.4931 19.3789C13.5437 19.3579 13.5897 19.3271 13.6284 19.2883L15 17.9167L15.955 18.8717C16.0133 18.93 16.0875 18.9698 16.1683 18.986C16.2492 19.0022 16.333 18.994 16.4092 18.9625C16.4854 18.931 16.5505 18.8776 16.5964 18.8091C16.6422 18.7405 16.6667 18.66 16.6667 18.5775V1.42251C16.6667 1.34006 16.6422 1.25947 16.5964 1.19095C16.5505 1.12242 16.4854 1.06902 16.4092 1.03753C16.333 1.00604 16.2492 0.997853 16.1683 1.01402C16.0875 1.03018 16.0133 1.06997 15.955 1.12834L15 2.08334L13.6284 0.711675C13.5897 0.672873 13.5437 0.642087 13.4931 0.621082C13.4424 0.600076 13.3882 0.589264 13.3334 0.589264C13.2786 0.589264 13.2243 0.600076 13.1737 0.621082C13.1231 0.642087 13.0771 0.672873 13.0384 0.711675L11.6667 2.08334L10.295 0.711675C10.2563 0.672873 10.2104 0.642087 10.1597 0.621082C10.1091 0.600076 10.0548 0.589264 10 0.589264C9.94523 0.589264 9.89097 0.600076 9.84035 0.621082C9.78973 0.642087 9.74375 0.672873 9.70504 0.711675L8.33337 2.08334L6.96171 0.711675C6.923 0.672873 6.87702 0.642087 6.8264 0.621082C6.77578 0.600076 6.72151 0.589264 6.66671 0.589264C6.6119 0.589264 6.55763 0.600076 6.50701 0.621082C6.45639 0.642087 6.41041 0.672873 6.37171 0.711675L5.00004 2.08334L4.04504 1.12834C3.98682 1.06997 3.91258 1.03018 3.83174 1.01402C3.75089 0.997853 3.66707 1.00604 3.59087 1.03753C3.51468 1.06902 3.44954 1.12242 3.40371 1.19095C3.35787 1.25947 3.33339 1.34006 3.33337 1.42251V18.5775Z" stroke="black" stroke-width="0.833333" stroke-linecap="round" stroke-linejoin="round"/>
<path d="M5.83337 5.41669H12.5" stroke="black" stroke-width="0.833333" stroke-linecap="round" stroke-linejoin="round"/>
<path d="M5.83337 7.91669H9.16671" stroke="black" stroke-width="0.833333" stroke-linecap="round" stroke-linejoin="round"/>
<path d="M5.83337 10.4167H9.16671" stroke="black" stroke-width="0.833333" stroke-linecap="round" stroke-linejoin="round"/>
<path d="M5.83337 12.9167H8.33337" stroke="black" stroke-width="0.833333" stroke-linecap="round" stroke-linejoin="round"/>
<path d="M12.5 14.5117V15.4167" stroke="black" stroke-width="0.833333" stroke-linecap="round" stroke-linejoin="round"/>
<path d="M13.3334 8.75V9.65667" stroke="black" stroke-width="0.833333" stroke-linecap="round" stroke-linejoin="round"/>
<path d="M11.6667 13.3333C11.6667 13.5806 11.7401 13.8222 11.8774 14.0278C12.0148 14.2334 12.21 14.3936 12.4384 14.4882C12.6668 14.5828 12.9181 14.6076 13.1606 14.5593C13.4031 14.5111 13.6258 14.392 13.8006 14.2172C13.9754 14.0424 14.0945 13.8197 14.1427 13.5772C14.191 13.3347 14.1662 13.0834 14.0716 12.855C13.977 12.6266 13.8168 12.4314 13.6112 12.294C13.4056 12.1567 13.164 12.0833 12.9167 12.0833C12.6695 12.0833 12.4278 12.01 12.2223 11.8727C12.0167 11.7353 11.8565 11.5401 11.7619 11.3117C11.6673 11.0833 11.6425 10.832 11.6908 10.5895C11.739 10.347 11.858 10.1243 12.0329 9.94946C12.2077 9.77464 12.4304 9.65559 12.6729 9.60736C12.9154 9.55913 13.1667 9.58389 13.3951 9.67849C13.6235 9.7731 13.8187 9.93332 13.9561 10.1389C14.0934 10.3444 14.1667 10.5861 14.1667 10.8333" stroke="black" stroke-width="0.833333" stroke-linecap="round" stroke-linejoin="round"/>
</svg>
