<svg width="30" height="30" viewBox="0 0 30 30" fill="none" xmlns="http://www.w3.org/2000/svg">
<path d="M5.23682 16.8456L5.57008 16.1663C5.57008 16.1663 7.74677 11.7252 8.15034 10.8624C9.57377 7.82835 13.2835 8.51952 13.9774 7.04039L15.4848 3.82739" stroke="#4A4A4A" stroke-linecap="round" stroke-linejoin="round"/>
<path d="M18.2399 4.40479C17.6273 5.71044 16.8028 7.46713 16.4577 8.20396C15.6651 9.894 18.7531 11.91 17.2438 15.1285L15.9263 17.8996" stroke="#4A4A4A" stroke-linecap="round" stroke-linejoin="round"/>
<path d="M17.8141 5.3111L15.3352 4.14788L16.3039 2.08075C16.3554 1.97119 16.4483 1.88656 16.5622 1.84547C16.676 1.80438 16.8015 1.81019 16.9111 1.86162L18.5656 2.63771C18.6751 2.68918 18.7597 2.78206 18.8008 2.89592C18.8419 3.00979 18.8361 3.13531 18.7847 3.24488L17.8141 5.3111Z" stroke="#4A4A4A" stroke-linecap="round" stroke-linejoin="round"/>
<path d="M21.625 20.9732C19.3424 21.4489 17.918 19.1663 17.918 19.1663C17.5647 19.7276 17.0778 20.1928 16.501 20.5202C15.9241 20.8476 15.2751 21.0271 14.6119 21.0426C13.9525 21.011 13.3099 20.8247 12.7358 20.4988C12.1618 20.1728 11.6725 19.7164 11.3076 19.1663V19.1663C10.9544 19.7275 10.4676 20.1926 9.89092 20.52C9.31419 20.8474 8.66538 21.0269 8.00239 21.0426C7.34275 21.0117 6.69969 20.8257 6.1254 20.4997C5.55112 20.1737 5.06181 19.7168 4.69717 19.1663C4.69717 19.1663 2.86378 21.49 0.625 21.0106" stroke="#4A4A4A" stroke-linecap="round" stroke-linejoin="round"/>
</svg>
