<svg width="20" height="20" viewBox="0 0 20 20" fill="none" xmlns="http://www.w3.org/2000/svg">
<g clip-path="url(#clip0)">
<path d="M3.79248 6.24998C3.79248 6.69201 3.97036 7.11593 4.28698 7.42849C4.60361 7.74105 5.03304 7.91665 5.48081 7.91665C5.92859 7.91665 6.35802 7.74105 6.67465 7.42849C6.99127 7.11593 7.16915 6.69201 7.16915 6.24998C7.16915 5.80795 6.99127 5.38403 6.67465 5.07147C6.35802 4.75891 5.92859 4.58331 5.48081 4.58331C5.03304 4.58331 4.60361 4.75891 4.28698 5.07147C3.97036 5.38403 3.79248 5.80795 3.79248 6.24998V6.24998Z" stroke="black" stroke-width="0.833333" stroke-linecap="round" stroke-linejoin="round"/>
<path d="M10.5833 9.30832L10.06 8.48165C10.0215 8.42161 9.96861 8.37221 9.90607 8.33798C9.84352 8.30376 9.77337 8.28583 9.70208 8.28583C9.63078 8.28583 9.56063 8.30376 9.49808 8.33798C9.43554 8.37221 9.3826 8.42161 9.34416 8.48165L7.11666 12L6.20832 10.565C6.16988 10.5049 6.11695 10.4555 6.0544 10.4213C5.99185 10.3871 5.9217 10.3692 5.85041 10.3692C5.77911 10.3692 5.70896 10.3871 5.64642 10.4213C5.58387 10.4555 5.53094 10.5049 5.49249 10.565L2.94916 14.5833H7.08332" stroke="black" stroke-width="0.833333" stroke-linecap="round" stroke-linejoin="round"/>
<path d="M6.99252 19.5833H1.26085C1.15069 19.5841 1.04146 19.5631 0.939399 19.5217C0.837339 19.4802 0.744454 19.419 0.666055 19.3416C0.587655 19.2642 0.525278 19.1721 0.48249 19.0706C0.439702 18.9691 0.417341 18.8601 0.416687 18.75V1.24998C0.417341 1.13982 0.439702 1.03086 0.48249 0.929348C0.525278 0.827833 0.587655 0.735746 0.666055 0.658352C0.744454 0.580959 0.837339 0.519776 0.939399 0.478303C1.04146 0.436829 1.15069 0.415878 1.26085 0.416646H12.2767C12.5 0.416075 12.7145 0.503847 12.8734 0.660813L16 3.74998C16.0785 3.82686 16.1409 3.91849 16.1838 4.01961C16.2267 4.12072 16.2492 4.22931 16.25 4.33915V7.91665" stroke="black" stroke-width="0.833333" stroke-linecap="round" stroke-linejoin="round"/>
<path d="M12.5 15.4167H9.58331V18.3334" stroke="black" stroke-width="0.833333" stroke-linecap="round" stroke-linejoin="round"/>
<path d="M19.0975 16.4442C18.7556 17.4468 18.0812 18.3023 17.1861 18.8688C16.2911 19.4354 15.2293 19.6789 14.1768 19.5589C13.1243 19.4389 12.1445 18.9627 11.4 18.2093C10.6554 17.4559 10.1908 16.4705 10.0833 15.4167" stroke="black" stroke-width="0.833333" stroke-linecap="round" stroke-linejoin="round"/>
<path d="M16.6667 13.75H19.5834V10.8333" stroke="black" stroke-width="0.833333" stroke-linecap="round" stroke-linejoin="round"/>
<path d="M10.0692 12.7225C10.4111 11.7199 11.0855 10.8644 11.9805 10.2978C12.8755 9.73129 13.9374 9.4878 14.9898 9.60776C16.0423 9.72773 17.0221 10.2039 17.7667 10.9574C18.5112 11.7108 18.9758 12.6962 19.0833 13.75" stroke="black" stroke-width="0.833333" stroke-linecap="round" stroke-linejoin="round"/>
</g>
<defs>
<clipPath id="clip0">
<rect width="20" height="20" fill="white"/>
</clipPath>
</defs>
</svg>
