<svg width="20" height="20" viewBox="0 0 20 20" fill="none" xmlns="http://www.w3.org/2000/svg">
<g clip-path="url(#clip0)">
<path d="M19.4607 6.78833L16.2107 3.66333C15.4343 2.91666 14.3988 2.49972 13.3216 2.5H6.67739C5.60028 2.50105 4.56542 2.91918 3.78989 3.66667L0.539892 6.79167C0.501089 6.83037 0.470304 6.87635 0.449298 6.92697C0.428293 6.97759 0.41748 7.03186 0.41748 7.08667C0.41748 7.14147 0.428293 7.19574 0.449298 7.24636C0.470304 7.29698 0.501089 7.34296 0.539892 7.38167L2.47573 9.3175C2.54922 9.39116 2.6476 9.43465 2.75154 9.43943C2.85548 9.44421 2.95745 9.40993 3.03739 9.34333L5.41656 7.5V17.0833C5.41656 17.1938 5.46046 17.2998 5.5386 17.378C5.61674 17.4561 5.72272 17.5 5.83323 17.5H14.1666C14.2771 17.5 14.383 17.4561 14.4612 17.378C14.5393 17.2998 14.5832 17.1938 14.5832 17.0833V7.5L16.9632 9.34C17.0432 9.4066 17.1451 9.44088 17.2491 9.4361C17.353 9.43132 17.4514 9.38782 17.5249 9.31417L19.4616 7.37833C19.5003 7.33957 19.531 7.29355 19.552 7.2429C19.5729 7.19225 19.5836 7.13797 19.5836 7.08316C19.5835 7.02835 19.5726 6.9741 19.5515 6.92351C19.5304 6.87292 19.4996 6.82698 19.4607 6.78833Z" stroke="#4A4A4A" stroke-linecap="round" stroke-linejoin="round"/>
<path d="M7.5 2.5C7.5 3.16304 7.76339 3.79893 8.23223 4.26777C8.70107 4.73661 9.33696 5 10 5C10.663 5 11.2989 4.73661 11.7678 4.26777C12.2366 3.79893 12.5 3.16304 12.5 2.5" stroke="#4A4A4A" stroke-linecap="round" stroke-linejoin="round"/>
</g>
<defs>
<clipPath id="clip0">
<rect width="20" height="20" fill="white"/>
</clipPath>
</defs>
</svg>
