<svg width="23" height="25" viewBox="0 0 23 25" fill="none" xmlns="http://www.w3.org/2000/svg">
<path d="M8.5 21.1625H16.0667C16.3073 21.1624 16.545 21.1102 16.7635 21.0095C16.982 20.9088 17.1761 20.762 17.3325 20.5791L18.9317 18.7133C19.1904 18.4116 19.3329 18.0274 19.3333 17.63V8.66248H8.5V21.1625Z" fill="#CEF1F2" stroke="#CEF1F2" stroke-width="0.833333" stroke-linecap="round" stroke-linejoin="round"/>
<path d="M21.8333 6.99578C21.8333 6.77476 21.7455 6.5628 21.5893 6.40652C21.433 6.25024 21.221 6.16244 21 6.16244H16.46C16.2438 5.66824 15.8883 5.24778 15.4369 4.95252C14.9854 4.65725 14.4577 4.5 13.9183 4.5C13.3789 4.5 12.8512 4.65725 12.3998 4.95252C11.9484 5.24778 11.5928 5.66824 11.3767 6.16244H6.83333C6.61232 6.16244 6.40036 6.25024 6.24408 6.40652C6.0878 6.5628 6 6.77476 6 6.99578V22.8291C6 23.0501 6.0878 23.2621 6.24408 23.4184C6.40036 23.5746 6.61232 23.6624 6.83333 23.6624H21C21.221 23.6624 21.433 23.5746 21.5893 23.4184C21.7455 23.2621 21.8333 23.0501 21.8333 22.8291V6.99578Z" fill="#CEF1F2" stroke="#CEF1F2" stroke-width="0.833333" stroke-linecap="round" stroke-linejoin="round"/>
<path d="M16.8335 11.1625H13.0835H16.8335Z" fill="#CEF1F2"/>
<path d="M16.8335 11.1625H13.0835" stroke="#CEF1F2" stroke-width="0.833333" stroke-linecap="round" stroke-linejoin="round"/>
<path d="M11 11.1625H11.4167H11Z" fill="#CEF1F2"/>
<path d="M11 11.1625H11.4167" stroke="#CEF1F2" stroke-width="0.833333" stroke-linecap="round" stroke-linejoin="round"/>
<path d="M16.8335 14.4957H13.0835H16.8335Z" fill="#CEF1F2"/>
<path d="M16.8335 14.4957H13.0835" stroke="#CEF1F2" stroke-width="0.833333" stroke-linecap="round" stroke-linejoin="round"/>
<path d="M11 14.4957H11.4167H11Z" fill="#CEF1F2"/>
<path d="M11 14.4957H11.4167" stroke="#CEF1F2" stroke-width="0.833333" stroke-linecap="round" stroke-linejoin="round"/>
<path d="M15.5835 17.8291H13.0835H15.5835Z" fill="#CEF1F2"/>
<path d="M15.5835 17.8291H13.0835" stroke="#CEF1F2" stroke-width="0.833333" stroke-linecap="round" stroke-linejoin="round"/>
<path d="M11 17.8291H11.4167H11Z" fill="#CEF1F2"/>
<path d="M11 17.8291H11.4167" stroke="#CEF1F2" stroke-width="0.833333" stroke-linecap="round" stroke-linejoin="round"/>
<path d="M4.5835 17.0834H12.1502C12.3908 17.0833 12.6285 17.0311 12.847 16.9304C13.0655 16.8297 13.2596 16.6829 13.416 16.5L15.0152 14.6342C15.2739 14.3325 15.4164 13.9483 15.4168 13.5509V4.58337H4.5835V17.0834Z" stroke="#03A9F4" stroke-width="0.833333" stroke-linecap="round" stroke-linejoin="round"/>
<path d="M17.9168 2.91667C17.9168 2.69566 17.829 2.4837 17.6728 2.32742C17.5165 2.17114 17.3045 2.08334 17.0835 2.08334H12.5435C12.3273 1.58914 11.9718 1.16868 11.5204 0.873416C11.0689 0.578153 10.5412 0.420898 10.0018 0.420898C9.46242 0.420898 8.93472 0.578153 8.4833 0.873416C8.03188 1.16868 7.67633 1.58914 7.46016 2.08334H2.91683C2.69582 2.08334 2.48385 2.17114 2.32757 2.32742C2.17129 2.4837 2.0835 2.69566 2.0835 2.91667V18.75C2.0835 18.971 2.17129 19.183 2.32757 19.3393C2.48385 19.4955 2.69582 19.5833 2.91683 19.5833H17.0835C17.3045 19.5833 17.5165 19.4955 17.6728 19.3393C17.829 19.183 17.9168 18.971 17.9168 18.75V2.91667Z" stroke="#03A9F4" stroke-width="0.833333" stroke-linecap="round" stroke-linejoin="round"/>
<path d="M12.917 7.08337H9.16699" stroke="#03A9F4" stroke-width="0.833333" stroke-linecap="round" stroke-linejoin="round"/>
<path d="M7.0835 7.08337H7.50016" stroke="#03A9F4" stroke-width="0.833333" stroke-linecap="round" stroke-linejoin="round"/>
<path d="M12.917 10.4166H9.16699" stroke="#03A9F4" stroke-width="0.833333" stroke-linecap="round" stroke-linejoin="round"/>
<path d="M7.0835 10.4166H7.50016" stroke="#03A9F4" stroke-width="0.833333" stroke-linecap="round" stroke-linejoin="round"/>
<path d="M11.667 13.75H9.16699" stroke="#03A9F4" stroke-width="0.833333" stroke-linecap="round" stroke-linejoin="round"/>
<path d="M7.0835 13.75H7.50016" stroke="#03A9F4" stroke-width="0.833333" stroke-linecap="round" stroke-linejoin="round"/>
<path d="M4.5835 17.0834H12.1502C12.3908 17.0833 12.6285 17.0311 12.847 16.9304C13.0655 16.8297 13.2596 16.6829 13.416 16.5L15.0152 14.6342C15.2739 14.3325 15.4164 13.9483 15.4168 13.5509V4.58337H4.5835V17.0834Z" stroke="#03A9F4" stroke-width="0.833333" stroke-linecap="round" stroke-linejoin="round"/>
<path d="M17.9168 2.91667C17.9168 2.69566 17.829 2.4837 17.6728 2.32742C17.5165 2.17114 17.3045 2.08334 17.0835 2.08334H12.5435C12.3273 1.58914 11.9718 1.16868 11.5204 0.873416C11.0689 0.578153 10.5412 0.420898 10.0018 0.420898C9.46242 0.420898 8.93472 0.578153 8.4833 0.873416C8.03188 1.16868 7.67633 1.58914 7.46016 2.08334H2.91683C2.69582 2.08334 2.48385 2.17114 2.32757 2.32742C2.17129 2.4837 2.0835 2.69566 2.0835 2.91667V18.75C2.0835 18.971 2.17129 19.183 2.32757 19.3393C2.48385 19.4955 2.69582 19.5833 2.91683 19.5833H17.0835C17.3045 19.5833 17.5165 19.4955 17.6728 19.3393C17.829 19.183 17.9168 18.971 17.9168 18.75V2.91667Z" stroke="#03A9F4" stroke-width="0.833333" stroke-linecap="round" stroke-linejoin="round"/>
<path d="M12.917 7.08337H9.16699" stroke="#03A9F4" stroke-width="0.833333" stroke-linecap="round" stroke-linejoin="round"/>
<path d="M7.0835 7.08337H7.50016" stroke="#03A9F4" stroke-width="0.833333" stroke-linecap="round" stroke-linejoin="round"/>
<path d="M12.917 10.4166H9.16699" stroke="#03A9F4" stroke-width="0.833333" stroke-linecap="round" stroke-linejoin="round"/>
<path d="M7.0835 10.4166H7.50016" stroke="#03A9F4" stroke-width="0.833333" stroke-linecap="round" stroke-linejoin="round"/>
<path d="M11.667 13.75H9.16699" stroke="#03A9F4" stroke-width="0.833333" stroke-linecap="round" stroke-linejoin="round"/>
<path d="M7.0835 13.75H7.50016" stroke="#03A9F4" stroke-width="0.833333" stroke-linecap="round" stroke-linejoin="round"/>
</svg>
