<svg width="20" height="20" viewBox="0 0 20 20" fill="none" xmlns="http://www.w3.org/2000/svg">
<path d="M19.5833 1.24999C19.5833 1.02898 19.4955 0.817014 19.3392 0.660734C19.1829 0.504454 18.971 0.416656 18.75 0.416656H3.74996C3.52895 0.416656 3.31698 0.504454 3.1607 0.660734C3.00442 0.817014 2.91663 1.02898 2.91663 1.24999V16.25C2.91663 16.471 3.00442 16.683 3.1607 16.8392C3.31698 16.9955 3.52895 17.0833 3.74996 17.0833H18.75C18.971 17.0833 19.1829 16.9955 19.3392 16.8392C19.4955 16.683 19.5833 16.471 19.5833 16.25V1.24999Z" stroke="black" stroke-width="0.833333" stroke-linecap="round" stroke-linejoin="round"/>
<path d="M17.0833 7.91666C17.0833 7.69564 16.9955 7.48368 16.8392 7.3274C16.6829 7.17112 16.471 7.08332 16.25 7.08332H12.9166V3.74999C12.9166 3.52898 12.8288 3.31701 12.6725 3.16073C12.5163 3.00445 12.3043 2.91666 12.0833 2.91666H10.4166C10.1956 2.91666 9.98365 3.00445 9.82737 3.16073C9.67109 3.31701 9.58329 3.52898 9.58329 3.74999V7.08332H6.24996C6.02895 7.08332 5.81698 7.17112 5.6607 7.3274C5.50442 7.48368 5.41663 7.69564 5.41663 7.91666V9.58332C5.41663 9.80434 5.50442 10.0163 5.6607 10.1726C5.81698 10.3289 6.02895 10.4167 6.24996 10.4167H9.58329V13.75C9.58329 13.971 9.67109 14.183 9.82737 14.3392C9.98365 14.4955 10.1956 14.5833 10.4166 14.5833H12.0833C12.3043 14.5833 12.5163 14.4955 12.6725 14.3392C12.8288 14.183 12.9166 13.971 12.9166 13.75V10.4167H16.25C16.471 10.4167 16.6829 10.3289 16.8392 10.1726C16.9955 10.0163 17.0833 9.80434 17.0833 9.58332V7.91666Z" stroke="black" stroke-width="0.833333" stroke-linecap="round" stroke-linejoin="round"/>
<path d="M2.91663 3.75H1.24996C1.02895 3.75 0.816984 3.8378 0.660704 3.99408C0.504423 4.15036 0.416626 4.36232 0.416626 4.58333V18.75C0.416626 18.971 0.504423 19.183 0.660704 19.3393C0.816984 19.4955 1.02895 19.5833 1.24996 19.5833H15.4166C15.6376 19.5833 15.8496 19.4955 16.0059 19.3393C16.1622 19.183 16.25 18.971 16.25 18.75V17.0833" stroke="black" stroke-width="0.833333" stroke-linecap="round" stroke-linejoin="round"/>
</svg>
