<svg width="20" height="20" viewBox="0 0 20 20" fill="none" xmlns="http://www.w3.org/2000/svg">
<g clip-path="url(#clip0)">
<path d="M0.711714 13.0384C0.618209 13.1317 0.544027 13.2426 0.493414 13.3646C0.4428 13.4867 0.416748 13.6175 0.416748 13.7496C0.416748 13.8818 0.4428 14.0126 0.493414 14.1346C0.544027 14.2567 0.618209 14.3675 0.711714 14.4609L5.53838 19.2884C5.72737 19.4767 5.98327 19.5824 6.25005 19.5824C6.51682 19.5824 6.77272 19.4767 6.96171 19.2884L19.2884 6.96089C19.3819 6.86754 19.4561 6.75668 19.5067 6.63463C19.5573 6.51259 19.5833 6.38176 19.5833 6.24964C19.5833 6.11752 19.5573 5.98669 19.5067 5.86465C19.4561 5.7426 19.3819 5.63174 19.2884 5.53839L17.3784 3.62756C17.285 3.53403 17.174 3.45983 17.0519 3.4092C16.9298 3.35858 16.7989 3.33252 16.6667 3.33252C16.5345 3.33252 16.4036 3.35858 16.2815 3.4092C16.1594 3.45983 16.0485 3.53403 15.955 3.62756L6.25005 13.3334L4.04505 11.1276C3.95163 11.034 3.84069 10.9598 3.71858 10.9092C3.59647 10.8586 3.46557 10.8325 3.33338 10.8325C3.20119 10.8325 3.07029 10.8586 2.94818 10.9092C2.82607 10.9598 2.71513 11.034 2.62171 11.1276L0.711714 13.0384Z" stroke="white" stroke-linecap="round" stroke-linejoin="round"/>
</g>
<defs>
<clipPath id="clip0">
<rect width="20" height="20" fill="white"/>
</clipPath>
</defs>
</svg>
