<svg width="20" height="20" viewBox="0 0 20 20" fill="none" xmlns="http://www.w3.org/2000/svg">
<path d="M3.75031 7.08313H11.667" stroke="black" stroke-width="0.833333" stroke-linecap="round" stroke-linejoin="round"/>
<path d="M3.75031 9.58313H8.75031" stroke="black" stroke-width="0.833333" stroke-linecap="round" stroke-linejoin="round"/>
<path d="M3.75031 4.58313H9.58364" stroke="black" stroke-width="0.833333" stroke-linecap="round" stroke-linejoin="round"/>
<path d="M3.75031 12.0831H7.08364" stroke="black" stroke-width="0.833333" stroke-linecap="round" stroke-linejoin="round"/>
<path d="M3.75031 14.5831H7.08364" stroke="black" stroke-width="0.833333" stroke-linecap="round" stroke-linejoin="round"/>
<path d="M8.75033 19.5832H1.25033C1.02931 19.5832 0.81735 19.4954 0.66107 19.3391C0.50479 19.1828 0.416992 18.9709 0.416992 18.7498V1.24984C0.416992 1.02882 0.50479 0.816862 0.66107 0.660582C0.81735 0.504301 1.02931 0.416504 1.25033 0.416504H12.3278C12.5488 0.416551 12.7607 0.504379 12.917 0.660671L16.0062 3.74984C16.1625 3.90608 16.2503 4.11801 16.2503 4.339V7.08317" stroke="black" stroke-width="0.833333" stroke-linecap="round" stroke-linejoin="round"/>
<path d="M9.58368 14.5831C9.58368 15.9092 10.1105 17.181 11.0481 18.1187C11.9858 19.0563 13.2576 19.5831 14.5837 19.5831C15.9098 19.5831 17.1815 19.0563 18.1192 18.1187C19.0569 17.181 19.5837 15.9092 19.5837 14.5831C19.5837 13.257 19.0569 11.9853 18.1192 11.0476C17.1815 10.1099 15.9098 9.58313 14.5837 9.58313C13.2576 9.58313 11.9858 10.1099 11.0481 11.0476C10.1105 11.9853 9.58368 13.257 9.58368 14.5831Z" stroke="black" stroke-width="0.833333" stroke-linecap="round" stroke-linejoin="round"/>
<path d="M16.812 13.1299L14.3912 16.3574C14.3373 16.4289 14.2688 16.4881 14.1901 16.5309C14.1115 16.5737 14.0246 16.5992 13.9353 16.6056C13.846 16.6119 13.7563 16.5991 13.6724 16.568C13.5884 16.5368 13.5122 16.488 13.4487 16.4249L12.1987 15.1749" stroke="black" stroke-width="0.833333" stroke-linecap="round" stroke-linejoin="round"/>
</svg>
