<svg width="20" height="20" viewBox="0 0 20 20" fill="none" xmlns="http://www.w3.org/2000/svg">
<path d="M0.416748 5.42252H19.5834" stroke="black" stroke-width="0.83" stroke-linecap="round" stroke-linejoin="round"/>
<path d="M17.0834 5.4165V17.9165C17.0834 18.3585 16.9078 18.7825 16.5953 19.095C16.2827 19.4076 15.8588 19.5832 15.4167 19.5832H4.58341C4.14139 19.5832 3.71746 19.4076 3.4049 19.095C3.09234 18.7825 2.91675 18.3585 2.91675 17.9165V5.4165" stroke="black" stroke-width="0.83" stroke-linecap="round" stroke-linejoin="round"/>
<path d="M2.0835 5.4165V4.58317C2.0835 4.14114 2.25909 3.71722 2.57165 3.40466C2.88421 3.0921 3.30814 2.9165 3.75016 2.9165H16.2502C16.6922 2.9165 17.1161 3.0921 17.4287 3.40466C17.7412 3.71722 17.9168 4.14114 17.9168 4.58317V5.4165" stroke="black" stroke-width="0.83" stroke-linecap="round" stroke-linejoin="round"/>
<path d="M7.5 2.9165C7.5 2.25346 7.76339 1.61758 8.23223 1.14874C8.70107 0.679896 9.33696 0.416504 10 0.416504C10.663 0.416504 11.2989 0.679896 11.7678 1.14874C12.2366 1.61758 12.5 2.25346 12.5 2.9165" stroke="black" stroke-width="0.83" stroke-linecap="round" stroke-linejoin="round"/>
<path d="M10 8.33301V16.2497" stroke="black" stroke-width="0.83" stroke-linecap="round" stroke-linejoin="round"/>
<path d="M13.75 8.33301V16.2497" stroke="black" stroke-width="0.83" stroke-linecap="round" stroke-linejoin="round"/>
<path d="M6.25 8.33301V16.2497" stroke="black" stroke-width="0.83" stroke-linecap="round" stroke-linejoin="round"/>
</svg>
