<svg width="25" height="25" viewBox="0 0 25 25" fill="none" xmlns="http://www.w3.org/2000/svg">
<path d="M6.05519 11.6792C6.15892 11.7943 6.28569 11.8864 6.42727 11.9494C6.56885 12.0124 6.7221 12.0449 6.87707 12.0449C7.03204 12.0449 7.18528 12.0124 7.32686 11.9494C7.46845 11.8864 7.59521 11.7943 7.69894 11.6792L8.23019 11.0917C8.38343 10.9223 8.58531 10.8044 8.80815 10.7542C9.031 10.7041 9.26391 10.724 9.47496 10.8114C9.68601 10.8988 9.86486 11.0493 9.98702 11.2424C10.1092 11.4354 10.1686 11.6614 10.1573 11.8896L10.1167 12.6813C10.1089 12.8358 10.1336 12.9903 10.1892 13.1348C10.2449 13.2792 10.3301 13.4104 10.4396 13.5198C10.549 13.6292 10.6802 13.7145 10.8246 13.7701C10.969 13.8258 11.1235 13.8505 11.2781 13.8427L12.0698 13.8021C12.298 13.7905 12.5242 13.8498 12.7174 13.9719C12.9106 14.0939 13.0613 14.2728 13.1488 14.4839C13.2364 14.695 13.2564 14.928 13.2063 15.1509C13.1561 15.3739 13.0382 15.5759 12.8687 15.7292L12.2802 16.2604C12.1651 16.3642 12.073 16.4909 12.01 16.6325C11.947 16.7741 11.9144 16.9273 11.9144 17.0823C11.9144 17.2373 11.947 17.3905 12.01 17.5321C12.073 17.6737 12.1651 17.8004 12.2802 17.9042L12.8687 18.4354C13.0382 18.5887 13.1561 18.7907 13.2063 19.0137C13.2564 19.2366 13.2364 19.4696 13.1488 19.6807C13.0613 19.8918 12.9106 20.0707 12.7174 20.1927C12.5242 20.3148 12.298 20.3741 12.0698 20.3625L11.2781 20.3219C11.1235 20.3141 10.969 20.3388 10.8246 20.3945C10.6802 20.4501 10.549 20.5354 10.4396 20.6448C10.3301 20.7542 10.2449 20.8854 10.1892 21.0298C10.1336 21.1743 10.1089 21.3288 10.1167 21.4833L10.1573 22.275C10.1686 22.5032 10.1092 22.7292 9.98702 22.9222C9.86486 23.1153 9.68601 23.2658 9.47496 23.3532C9.26391 23.4405 9.031 23.4605 8.80815 23.4104C8.58531 23.3602 8.38343 23.2423 8.23019 23.0729L7.69894 22.4854C7.59521 22.3703 7.46845 22.2782 7.32686 22.2152C7.18528 22.1522 7.03204 22.1197 6.87707 22.1197C6.7221 22.1197 6.56885 22.1522 6.42727 22.2152C6.28569 22.2782 6.15892 22.3703 6.05519 22.4854L5.52394 23.0729C5.3707 23.2423 5.16883 23.3602 4.94598 23.4104C4.72313 23.4605 4.49022 23.4405 4.27918 23.3532C4.06813 23.2658 3.88927 23.1153 3.76712 22.9222C3.64496 22.7292 3.58549 22.5032 3.59686 22.275L3.63748 21.4833C3.64525 21.3288 3.62052 21.1743 3.5649 21.0298C3.50928 20.8854 3.424 20.7542 3.31456 20.6448C3.20512 20.5354 3.07395 20.4501 2.92952 20.3945C2.78509 20.3388 2.6306 20.3141 2.47603 20.3219L1.68436 20.3625C1.45668 20.3734 1.2312 20.3137 1.0387 20.1916C0.846207 20.0695 0.696071 19.891 0.608792 19.6805C0.521512 19.4699 0.501341 19.2375 0.551033 19.0151C0.600725 18.7926 0.717857 18.5909 0.886442 18.4375L1.47394 17.9063C1.58908 17.8025 1.68113 17.6758 1.74414 17.5342C1.80715 17.3926 1.83971 17.2394 1.83971 17.0844C1.83971 16.9294 1.80715 16.7762 1.74414 16.6346C1.68113 16.493 1.58908 16.3662 1.47394 16.2625L0.886442 15.7292C0.717043 15.5759 0.599181 15.3741 0.549011 15.1512C0.498841 14.9284 0.518818 14.6955 0.606203 14.4844C0.693588 14.2734 0.844106 14.0945 1.03712 13.9723C1.23014 13.8502 1.45622 13.7907 1.68436 13.8021L2.47603 13.8427C2.6306 13.8505 2.78509 13.8258 2.92952 13.7701C3.07395 13.7145 3.20512 13.6292 3.31456 13.5198C3.424 13.4104 3.50928 13.2792 3.5649 13.1348C3.62052 12.9903 3.64525 12.8358 3.63748 12.6813L3.59686 11.8896C3.58549 11.6614 3.64496 11.4354 3.76712 11.2424C3.88927 11.0493 4.06813 10.8988 4.27918 10.8114C4.49022 10.724 4.72313 10.7041 4.94598 10.7542C5.16883 10.8044 5.3707 10.9223 5.52394 11.0917L6.05519 11.6792Z" stroke="black" stroke-width="0.833333" stroke-linecap="round" stroke-linejoin="round"/>
<path d="M4.33435 17.0823C4.33435 17.7567 4.60224 18.4034 5.07909 18.8803C5.55594 19.3571 6.20269 19.625 6.87706 19.625C7.55143 19.625 8.19818 19.3571 8.67503 18.8803C9.15188 18.4034 9.41977 17.7567 9.41977 17.0823C9.41977 16.4079 9.15188 15.7612 8.67503 15.2843C8.19818 14.8075 7.55143 14.5396 6.87706 14.5396C6.20269 14.5396 5.55594 14.8075 5.07909 15.2843C4.60224 15.7612 4.33435 16.4079 4.33435 17.0823Z" stroke="black" stroke-width="0.833333" stroke-linecap="round" stroke-linejoin="round"/>
<path d="M18.9448 13.3229C18.8411 13.2078 18.7143 13.1157 18.5727 13.0527C18.4311 12.9897 18.2779 12.9571 18.1229 12.9571C17.9679 12.9571 17.8147 12.9897 17.6731 13.0527C17.5315 13.1157 17.4048 13.2078 17.301 13.3229L16.7698 13.9115C16.6165 14.0809 16.4145 14.1988 16.1916 14.249C15.9686 14.2991 15.7356 14.2791 15.5245 14.1916C15.3134 14.104 15.1345 13.9533 15.0125 13.7602C14.8904 13.567 14.8311 13.3407 14.8427 13.1125L14.8833 12.3208C14.8911 12.1663 14.8664 12.0118 14.8108 11.8673C14.7551 11.7229 14.6699 11.5917 14.5604 11.4823C14.451 11.3729 14.3198 11.2876 14.1754 11.232C14.0309 11.1763 13.8765 11.1516 13.7219 11.1594L12.9302 11.2C12.702 11.2116 12.4758 11.1523 12.2826 11.0302C12.0894 10.9082 11.9387 10.7293 11.8512 10.5182C11.7636 10.3071 11.7436 10.0741 11.7937 9.85114C11.8439 9.62819 11.9618 9.42621 12.1313 9.27292L12.7198 8.74167C12.8349 8.63793 12.927 8.51117 12.99 8.36959C13.053 8.228 13.0856 8.07476 13.0856 7.91979C13.0856 7.76482 13.053 7.61158 12.99 7.46999C12.927 7.32841 12.8349 7.20165 12.7198 7.09792L12.1313 6.56667C11.9618 6.41337 11.8439 6.2114 11.7937 5.98844C11.7436 5.76549 11.7636 5.53247 11.8512 5.32137C11.9387 5.11027 12.0894 4.93142 12.2826 4.80935C12.4758 4.68729 12.702 4.62799 12.9302 4.63958L13.7219 4.68021C13.8765 4.68797 14.0309 4.66325 14.1754 4.60763C14.3198 4.55201 14.451 4.46672 14.5604 4.35728C14.6699 4.24784 14.7551 4.11668 14.8108 3.97225C14.8664 3.82781 14.8911 3.67333 14.8833 3.51875L14.8427 2.72708C14.8313 2.49894 14.8908 2.27287 15.013 2.07985C15.1351 1.88683 15.314 1.73631 15.525 1.64893C15.7361 1.56154 15.969 1.54157 16.1918 1.59174C16.4147 1.64191 16.6166 1.75977 16.7698 1.92917L17.301 2.51667C17.4048 2.6318 17.5315 2.72385 17.6731 2.78687C17.8147 2.84988 17.9679 2.88244 18.1229 2.88244C18.2779 2.88244 18.4311 2.84988 18.5727 2.78687C18.7143 2.72385 18.8411 2.6318 18.9448 2.51667L19.476 1.92917C19.6293 1.75977 19.8312 1.64191 20.054 1.59174C20.2769 1.54157 20.5098 1.56154 20.7208 1.64893C20.9319 1.73631 21.1107 1.88683 21.2329 2.07985C21.355 2.27287 21.4145 2.49894 21.4031 2.72708L21.3625 3.51875C21.3547 3.67333 21.3795 3.82781 21.4351 3.97225C21.4907 4.11668 21.576 4.24784 21.6854 4.35728C21.7949 4.46672 21.926 4.55201 22.0705 4.60763C22.2149 4.66325 22.3694 4.68797 22.524 4.68021L23.3156 4.63958C23.5438 4.62822 23.7698 4.68769 23.9629 4.80984C24.1559 4.93199 24.3064 5.11085 24.3938 5.3219C24.4812 5.53295 24.5011 5.76586 24.451 5.9887C24.4008 6.21155 24.2829 6.41343 24.1135 6.56667L23.526 7.09792C23.4109 7.20165 23.3189 7.32841 23.2558 7.46999C23.1928 7.61158 23.1603 7.76482 23.1603 7.91979C23.1603 8.07476 23.1928 8.228 23.2558 8.36959C23.3189 8.51117 23.4109 8.63793 23.526 8.74167L24.1135 9.27292C24.2829 9.42615 24.4008 9.62803 24.451 9.85088C24.5011 10.0737 24.4812 10.3066 24.3938 10.5177C24.3064 10.7287 24.1559 10.9076 23.9629 11.0297C23.7698 11.1519 23.5438 11.2114 23.3156 11.2L22.524 11.1594C22.3694 11.1516 22.2149 11.1763 22.0705 11.232C21.926 11.2876 21.7949 11.3729 21.6854 11.4823C21.576 11.5917 21.4907 11.7229 21.4351 11.8673C21.3795 12.0118 21.3547 12.1663 21.3625 12.3208L21.4031 13.1125C21.4147 13.3407 21.3554 13.567 21.2334 13.7602C21.1113 13.9533 20.9324 14.104 20.7213 14.1916C20.5102 14.2791 20.2772 14.2991 20.0543 14.249C19.8313 14.1988 19.6293 14.0809 19.476 13.9115L18.9448 13.3229Z" stroke="black" stroke-width="0.833333" stroke-linecap="round" stroke-linejoin="round"/>
<path d="M15.5802 7.91978C15.5802 8.2537 15.646 8.58434 15.7738 8.89284C15.9015 9.20133 16.0888 9.48164 16.3249 9.71775C16.5611 9.95386 16.8414 10.1412 17.1499 10.2689C17.4584 10.3967 17.789 10.4625 18.1229 10.4625C18.4568 10.4625 18.7875 10.3967 19.096 10.2689C19.4045 10.1412 19.6848 9.95386 19.9209 9.71775C20.157 9.48164 20.3443 9.20133 20.4721 8.89284C20.5999 8.58434 20.6656 8.2537 20.6656 7.91978C20.6656 7.58587 20.5999 7.25523 20.4721 6.94673C20.3443 6.63824 20.157 6.35793 19.9209 6.12182C19.6848 5.8857 19.4045 5.69841 19.096 5.57063C18.7875 5.44284 18.4568 5.37708 18.1229 5.37708C17.789 5.37708 17.4584 5.44284 17.1499 5.57063C16.8414 5.69841 16.5611 5.8857 16.3249 6.12182C16.0888 6.35793 15.9015 6.63824 15.7738 6.94673C15.646 7.25523 15.5802 7.58587 15.5802 7.91978V7.91978Z" stroke="black" stroke-width="0.833333" stroke-linecap="round" stroke-linejoin="round"/>
</svg>
